<?xml version="1.0" encoding="utf-8"?>
<!-- Generator: Adobe Illustrator 18.1.0, SVG Export Plug-In . SVG Version: 6.00 Build 0)  -->
<!DOCTYPE svg PUBLIC "-//W3C//DTD SVG 1.1//EN" "http://www.w3.org/Graphics/SVG/1.1/DTD/svg11.dtd">
<svg version="1.1" id="Layer_1" xmlns="http://www.w3.org/2000/svg" xmlns:xlink="http://www.w3.org/1999/xlink" x="0px" y="0px"
	 viewBox="0 167 960 217" enable-background="new 0 167 960 217" xml:space="preserve">
<g>
	<path fill="#388E8E" d="M119.3,289.1c-6.1,1.1-10.3-2.5-11.4-10.7c-9,8.5-18.4,16.3-29.5,21.9c-1.3,0-2.5-1.3-3.8,0
		c-3.4,3.3-7.4,2.7-11.4,1.8v0.2c0-2-0.7-2.5-2.4-1.1c-4.5-3.1-7.4-6.7-6.3-12.5c0.7-0.2,1.3-0.5,1.4-1.3c0.7-3.8,1.8-7.1,5.8-8.9
		c1.8-0.9,2-3.3,1.6-5.2c-0.2-1.3-1.1-2.7,0.4-3.8s2,1.6,3.6,1.1c0-0.7-0.4-2,0-2.4c4.3-2.9,7.2-7.2,10.1-11.4
		c2.5-3.6,4.3-8,8.9-10.1c0.9-0.4,0.7-1.6-0.2-2.5l0,0c-0.4-4,5.8-4.5,4.9-9c0,0,0.5-0.2,0.7-0.2c1.3-0.4,2.2-1.3,2.5-2.5
		c0.5-1.8,1.8-2.4,3.4-2.5c4.5-0.4,8-1.8,7.8-7.2c0-0.9,0.5-0.5,1.1-0.5c4.3-0.2,7.1-5.2,11.9-4.2c0.4,0,0.9-0.5,1.3-0.9
		c0.7-0.5,0.4-2.4,1.8-1.8c1.3,0.5,1.1,1.8,1.1,2.9c-0.5,0.2-0.9,0.4-1.4,0.5c0.2,0.2,0.2,0.4,0.4,0.5c0.4-0.4,0.7-0.7,1.1-1.1
		c0.5,0,1.4,0.2,1.6-0.2c3.1-4.3,6-4.9,8.7,0.4c-0.5,0.5-1.3,1.1-1.8,1.6c-2.9-2-4.7-1.1-6.5,1.4c-2.2,2.9-4.2,6-6,9
		c-2.4,4-9,3.8-9.9,9.6c0,0.2-0.7,0.4-1.1,0.2c-2.4-1.1-2.9,0.5-2.7,2.2c0.2,1.8-0.2,1.8-1.6,1.4c-0.9-0.2-1.4,0.5-1.6,1.4
		c-2,6.1-7.4,9.8-11.8,13.7c-3.3,2.9-4.3,6.1-5.8,9.8l0,0c-3.4,0.9-5.2,3.3-5.8,6.9v-0.2c-0.4,0.4-0.5,0.5-0.9,0.9h0.2
		c-0.2,0-0.5,0-0.7,0.2c0.2,0.2,0.4,0.4,0.4,0.5c-2.2,3.6-4.5,7.1-6.7,10.7c-1.4,2.2,0.4,1.6,1.6,1.6c-0.7,0.7-1.8,1.4-0.5,2.7
		c0.9,0.9,1.6,0.2,2.5-0.4c8.5-5.1,17-10.1,25.5-15.4c1.6-1.1,4-1.4,4.2-4.2l0,0c1.8,0.7,3.3,0.4,4.5-1.1c1.4-1.6,3.1-3.1,5.1-3.4
		c6.7-1.4,7.6-7.1,9.6-12.1v-0.2c1.1,0.5,1.6-0.2,2.5-0.7c3.3-2.2,4.3-6,7.8-8.1c3.6-2.4,7.2-5.2,10.3-8.5c1.8-0.5,1.6-3.4,4-3.1
		c0.4-0.2,0.5-0.5,0.9-0.7l0.2-0.2l0.2,0.2c1.3,0.5,4.2-2.4,3.8,1.6c-0.5,0.2-1.3,0.2-1.3,1.1c0,0.2,0.2,0.2,0.2,0.2
		c0.9,0,0.9-0.5,1.1-1.3c2-0.2,2-2.2,2.9-3.3c0.9-1.3,2-0.7,2.7,0.2c0.7,0.9,1.6,2.2,0.2,2.7c-2.2,0.7-3.4,2.7-5.2,3.8
		c-2.4,1.4-5.8,1.4-6.9,3.8c-0.9,2.2-1.6,3.4-4.2,3.8c-1.3,0.2-2.5,0.9-2,2.7c0.2,0.5,0,1.4-0.5,1.1c-2.9-1.8-4,2-6.3,1.8
		c-0.5-1.1,1.6-2.4-0.2-3.1c-0.2-0.2-1.1,0.4-1.1,0.4c0.2,1.1-0.7,2.5,1.3,2.9c-1.8,3.3-2.7,7.6-5.4,9.4c-3.8,2.5-3.3,5.4-3.3,8.7
		l-0.2-0.2c-3.1-0.2-2.9,2-2.7,4l0,0c-1.4-0.2-2,0.4-1.6,1.8l-0.2-0.2c-1.1,0.4-0.9,1.3-0.9,2c-0.4,0.4-0.5,0.5-0.9,0.9
		c0.2,0.4,0,1.3,0.7,0.4c0.5,0,1.1-0.2,1.6-0.2c3.8,0.7,6.5-0.9,8.3-4.2l0,0c3.8,0,5.8-2.7,8.1-5.1l-0.2-0.2
		c0.9,0.4,2.2-0.2,2.5,0.9c0.4,1.3-1.4,1.1-1.8,1.8c-0.9,1.8-4.3,1.3-4,3.6c0.5,3.8-1.6,3.1-3.8,2.5c-2.7-0.7-5.6,1.8-5.2,2.5
		c1.6,4.9-1.8,5.1-4.9,5.8C119.5,287.3,119.5,288.4,119.3,289.1z M60.7,288.4c0-0.4,0-0.7-0.2-1.3c0-0.7,0-1.6-1.1-2
		c-0.4,0-0.9,0-1.1,0.4c-0.7,1.1,0.4,1.6,1.1,2.4c0.2,0.4,0.5,0.5,0.9,0.7c0.2,0.5,0.2,1.1,0.5,1.4c0.5,0.7,1.1,1.8,2.4,1.3
		c0.4-0.2,0.5-0.9,0.5-1.4c0-1.3-0.9-1.6-2-1.6C61.6,288.4,61.3,288.4,60.7,288.4z M92.4,246.8c-2.5,0.9-4.2,2.5-5.1,5.1
		c0,0.2-0.2,0.2-0.2,0.4c0-0.2,0.2-0.2,0.2-0.4C89.5,250.6,94.6,252.1,92.4,246.8c1.3-0.7,2.2,2.9,3.6,0.2c0.7-1.3,0-1.8-0.9-2.2
		C93.1,243.9,92.7,245.2,92.4,246.8z M79.5,264.4c0.5-0.2,1.4,0.2,1.4-0.9c-0.2-0.9-0.5-1.4-1.6-1.4c-0.7,0-1.4,0.5-1.4,1.3
		C77.7,264.4,78.8,264.2,79.5,264.4z M81.7,260.6c0.2-0.2,0.4-0.5,0.2-0.7c0-0.2-0.4-0.2-0.7-0.4c-0.2,0.2-0.4,0.5-0.2,0.7
		C81.2,260.6,81.5,260.6,81.7,260.6z"/>
	<path fill="#388E8E" d="M835.4,241.8c2.2-4.9,7.8-6.1,11.2-2c1.1,1.3,5.8,0.5,2.9,4.5c-4-2.2-6.3-0.7-6.5,4.3
		c0,1.3-0.4,0.7-0.9,0.9c-3.1,0.7-6.9,6.3-7.2,9.6c-0.2,2-1.4,4-3.4,4.7c-4,1.3-7.6,6.5-6.9,10.7c-0.4,1.4-1.6,2.4-2.5,3.3
		c-2.5-0.5-3.3,1.6-4.3,3.1c-2.5,3.1-5.4,6-7.6,9.2c-0.9,1.3-2.2-1.3-2.2,0.5c0,1.4,1.6,0.7,2.2,1.4c0.9,0.2,1.8,0.2,2.7,0.4
		c1.4,2,3.8,0,6.5,1.1c-5.4,1.3-9.8,2.2-14.1,3.1c0-0.5,0-1.3-1.1-1.3c-0.2,0-0.2,0.2-0.2,0.2c0,0.9,0.7,0.9,1.3,1.1
		c-0.2,3.6-3.4,0.9-4.9,2.2c-1.1,0.9-3.4,0.5-3.3,2.5c0.2,2.2,2.5-0.7,3.4,0.9c-3.6,4.5-6.9,9.6-11.2,13.4c-2,1.6-1.3,4.9-4.2,5.4
		c-1.6,0.2-1.4,1.3-2,2.2c-2.2,2.9-2.7,7.4-6.5,8.7c-3.3,1.1-4.9,2.9-5.6,5.8l-0.2,0.2c-2.9,1.1-3.6,2.9-2.5,5.8
		c-4.9,6-11.2,10.1-17,15.2c-4.5,4-9.9,6-15,8.7c-8.7,4.9-15.5-1.1-18.6-7.6c-2-4.3-2.9-9.2-3.4-14.1c-0.2-2.2,0.2-3.6,1.8-5.1
		c3.1-3.1,6-6.5,9.8-8.9c0.9,1.3,3.3,1.3,3.6,0.9c1.8-3.3,5.4-4.9,6.5-8.3h0.4c4.3,1.3,8.1-1.6,10.5-3.8c6.1-5.2,14.3-6.3,20.4-11.4
		c0.5-0.4,1.3-0.5,2-0.7c3.3-0.7,6.5-1.8,9.4-3.6c2.4-1.4,4.9-2.5,7.6-3.1c6.1-1.1,11.8-3.3,15.2-9.2c2-3.4,5.4-6,7.4-9.4
		c2.5-3.8,6.3-6.9,7.1-11.8l0,0c3.3-0.2,4-5.8,8.5-3.3c-1.8-1.8-2.7-3.4-0.5-4.9c1.8-1.3,0.5-5.6,5.1-4.7c1.3,0.2,1.1-4.7,3.3-6.1
		c0.5-0.4,1.3-0.7,1.8-0.7c3.1-0.5,4-3.3,5.8-5.1c0.7-0.7,0.9-2.2-0.4-2.2C837.4,244.3,836.9,242.3,835.4,241.8z M742.7,335.4
		L742.7,335.4c-1.3-0.2-2.7-0.4-2.2,1.8v0.2c-1.3-1.1-1.1-2.7-1.1-4.3c0-0.9-0.2-2.4-1.4-1.6c-2.5,1.4-5.2,2.7-6.9,5.6
		c2.2,0.5,3.1-2.2,5.1-0.7c-4,4-7.2,8.9-11.9,12.1c-0.9,0.2-2.5-0.4-1.8,1.6c0.2,0.5,0.2,1.6,1.1,1.3c1.3-0.5,0.5-1.8,0.7-2.9
		c3.1,1.6,4.9,0.4,6.1-2.4c0.7-1.8,1.8-2.9,4-2.5c0,0.5,0,1.1,0,1.8c0,2-3.8,3.1-1.6,5.6c2.4,2.7,5.2,2,8,0.9
		c1.1-0.4,2.4-0.7,3.6-1.1c3.4,1.3,5.4-0.7,6.7-3.6c0.7-0.5,1.4-0.9,2.2-1.4c4.3-0.7,7.6-2.7,9-7.1c0.9-1.1,1.8-2.4,3.3-2.9
		c4.7-1.4,7.1-5.4,9.8-8.9c1.3-1.6,4.9-2.4,3.1-5.8l0,0c1.4,0.4,2.7,0.5,3.8-1.1c1.6-2.4,3.1-5.1,5.6-6.7c1.4-1.1,1.4-3.1,2.7-4.3
		c1.4-1.4-0.5-1.4-1.4-1.4c-0.2-1.4-1.1-0.7-1.8-0.7c-3.1-3.3-5.8,3.3-8.7,0.4c0.5,4.5-2.9,1.1-4.3,2c0,0.9,1.4,1.3,0.5,2.2
		c-1.8,2-4.2,1.4-6.9,0.2c0.9,1.8,1.4,2.7,2.2,3.8l-0.2-0.2c-1.3-0.2-2.7-0.4-2.5,1.6v-0.2c-1.4-0.5-3.1,1.3-4.3,0.2
		c-2.4-2-4.3-0.2-5.4,0.9c-1.4,1.4-4.7,1.6-4.7,2.4c0.2,2.7,0,4.5-2.7,5.8c-0.7,0.4-0.4,1.8,0.2,2.7h-0.2c-2.4-0.7-2-3.4-3.3-4.9
		c-0.2-0.4,0.2-1.3-0.7-1.1c-0.4,0.2-0.9,0.7-1.1,1.1c-0.4,1.1,0.2,1.8,0.7,2.7c1.4,2.7,1.1,4-2.4,3.3c-0.4,1.6,1.6,2.2,1.6,3.6
		v-0.2C743.2,333.6,742.7,334.1,742.7,335.4z"/>
	<path fill="#388E8E" d="M329.8,271.2c-0.2,0.7-0.9,0.7-1.4,0.7c-0.9,0-2.4-0.2-2.7,0.4c-2,2.4-3.3,2.5-5.4-0.4
		c-0.9-1.3-3.6,0-5.1,1.1c-1.6,1.3-0.7,1.8,0.7,2.5c0.9,0.5,0.7,1.6,0.4,2.5c-0.4,0.7-1.1,1.3-2,1.1c-1.6-0.2-1.4-1.3-1.1-2.5
		c0.2-0.5,0-1.1-1.1-1.1c-0.5,1.3-0.7,2.7-2.2,3.6l-0.2,0.2c-3.6,0.7-5.4-3.6-8.9-3.4c-0.7-0.4-1.1-0.9-1.1-1.6
		c1.6-1.1-0.9-2.5,0.5-3.6c5.1,1.6,10.1,1.6,14.8-0.5c7.4-3.4,13.6-9,20.6-12.8c1.1-0.5,1.6-1.8,1.3-3.3l0.2,0.2
		c2.5,0.4,4.5-0.2,4.3-3.4c0.4-0.2,0.5-0.5,0.9-0.7c0.9,0,1.4-0.4,1.6-1.3c0.9-0.7,1.8-1.4,2.7-2.4c0.9-0.9,0.9-0.9-1.1-1.4
		c-0.4-2.2-2-1.4-3.3-1.6c-0.9-0.2-2.2,0.2-2.4-1.1c-0.4-2.2,0.5-4,1.8-5.8c0.7-1.1,1.6-0.4,2.5-0.2c3.8,0.9,4.2,4.3,5.6,7.1
		c4.3-0.7,8.9-2,12.7,1.4c-0.5,2.5,2,3.8,2.2,6.1c0,0.5,0,1.1,0,1.6c-1.3,0.4-3.1-2.2-3.8,0.4c-0.4,1.6-3.8,2.9-0.9,5.4
		c1.6,1.4,0.7,2.9-1.8,2.7s-3.4,0.9-2,3.3c0.7,0.9,1.1,2.4-0.2,2.2c-4-0.4-4.5,3.1-6.5,5.1c-2.7,2.5-3.8,6.1-6,9.2
		c-1.8,2.5-5.4,4.2-5.4,7.4c0,2.5-1.3,3.8-2.9,4.3c-2,0.7-3.1,2.2-4.3,3.6c-1.6,2-3.6,3.8-5.1,6c-4,6.3-12.3,9.6-13.6,17.9
		c0,0.2-0.2,0.5-0.5,0.7c-3.8,1.8-4.5,6.3-7.8,8.7c-0.9,0.7-1.6,1.6-1.1,2.9l-0.2-0.2c-0.5,0-0.9,0.4-0.9,0.9l0,0
		c-0.4,0.4-0.5,0.5-0.9,0.9h0.2c-2.7,0-4.5,1.1-4.3,4c-0.9,0.5-1.1,1.8-2.4,1.8c-0.2-1.1-0.2-2.9-0.7-3.1c-3.8-1.1-3.3,4-6.3,4.5
		c-1.3,0.4-0.7,2.2,0.9,2.4l0,0c-0.4,2-2.2,2.5-3.3,3.8c-1.6-0.5-0.7-3.4-2.2-2.7c-1.8,0.7-3.6,2.5-4.7,4.2c-0.9,1.3,2,1.1,2,2.9
		c-2.5,1.1-5.2,2.4-4.3,6.1v-0.2c-0.4,0.4-0.5,0.7-0.9,0.9h0.2c-1.8-0.2-2.7,0.7-2.5,2.5l0,0c-2.5-0.2-4.2,0.5-4.2,3.4v-0.2
		c-0.4,0.4-0.5,0.5-0.9,0.9l0.2,0.2c-1.8-0.5-2.7-1.8-1.3-3.4c0.9-1.3,1.6-2.5,3.1-3.6c2.7-1.8,1.4-4.9,0.2-6.5
		c-0.9-1.3-3.8-1.1-4.7,1.4l0,0c-1.3-1.4-1.1-2.4,0.7-3.4c4-2.5,7.8-5.2,11-8.7c2.2-2.4,4.9-4.5,7.6-6.3c3.4-2.4,7.4-4.3,9.6-7.8
		c2.5-4.3,8.1-5.8,9.8-10.8c3.8,0.9,3.8-3.3,6-4.7c1.8-1.1,2.9-3.4,1.3-5.8c0.5-1.6,2.7-2.2,2.9-4.3c-1.3,0.4-2.5,0.5-3.8,0.2
		c-1.6,0.7-4.3,0-4.9,2.7l0.2,0.2c-4-1.4-6.5,2.2-9.8,3.3c-2.9,0.9-5.6,3.8-6.9-1.6c0-0.4-0.9-0.4-1.4-0.7
		c5.8-3.6,12.5-5.6,18.6-8.1c0.7,1.1,2,1.3,2.5,0.5c1.8-2,4.5-1.3,6.7-2c2.9-0.9,3.4,0.7,2.2,3.6c2-1.1,5.4,0,4.3-4.2
		c-0.2-0.5,0.5-1.4,1.4-1.3c1.3,0.2-0.2,1.1,0.2,1.4c0.4,0.4,0.7,1.3,0.9,1.3c1.6-0.5,2.4-1.6,3.1-3.1c0.2-0.5,1.3-0.7,0.4-1.6
		c-1.6-1.8-1.6-2,0.4-3.1c1.1-0.5,1.3-1.3,1.4-2.2c0.5-2.5,2.5-3.8,4-5.8c0.9-1.3,3.1,1.4,3.1-0.9c0-6.1,5.2-9,7.6-13.7
		c1.4-2.5,4.9-3.6,4.7-7.8c-0.2-1.6,2-5.6,5.1-7.1c1.1-0.4,1.1-1.1,0.5-2c-0.7-1.1-1.8-1.1-2.2,0.2c-0.5,1.6-1.6,0.9-2.7,0.7
		c-3.1,0-6.9,2.2-6.9,4c0,4.3-2.2,6.1-5.1,8.1c-1.6,1.1-3.4,2-3.1,4.5l0,0c-0.7,0-1.4,0-1.6,1.1h0.2
		C331.6,268.7,329.9,268.9,329.8,271.2z M333,285.2l-0.2-0.2l-0.2,0.2c0.2,0.2,0.2,0.2,0.4,0.4C332.8,285.3,332.8,285.2,333,285.2z"
		/>
	<path fill="#388E8E" d="M921.5,200.7c4.2,0.5,6.9,3.6,10.1,5.8c-1.3,1.1-0.5,2.9,0,3.3c4,2.5,5.8,6.1,6.7,10.7
		c0.2,1.1,0.5,2.2,2.2,2.2c0.4,4.7-0.2,9.4-3.1,13.6c-3.3,1.6-3.3,5.2-5.2,7.6c-0.9,1.1-2.5,2.2-0.9,4c-3.1,6.3-8.1,11-12.7,15.9
		c-1.8,2-3.1,4.7-5.6,6c-2.7-0.7-4,3.3-6.7,2c-3.4-1.8-2.5,1.6-3.4,2.9c-0.2,0.2,1.1,1.1,0.4,1.6c-5.1,3.4-8.7,9.2-15.7,9.6
		c-1.8,0-2,1.1-2,2.5l0,0c-1.3,0-2.5,0-3.8,0.4c-0.4,0-1.8,0.4-1.1,1.1c2.5,2.7-1.1,2.2-1.3,2.2c-2-0.7-3.8,0.7-5.8,0
		c-0.9-0.4-2.5-0.5-2,1.4c0.4,1.4-0.5,1.6-1.6,1.8c-1.8,0.4-3.4,1.1-4.2,3.1c-0.4,1.3-2.2,1.6-2.7,1.4c-2.4-0.9-4,0-6,0.9
		c-0.7,0.4-1.8,0.4-1.8-0.4c-0.2-4.7-2-2.9-3.8-0.9c-1.3,1.3-2.5,0.2-3.4-0.4c-1.1-0.5-2-1.4-3.4-1.3h0.2c-0.4-0.4-0.7-0.5-1.3-0.9
		c-2.5-2.2-3.3-5.1-3.1-8.5c3.3-1.6,0.7-5.8,3.4-7.8c1.1,0-0.2,2,1.3,1.8c1.1-0.2,1.8-0.9,1.8-2c0.2-3.4,2.7-4.9,5.1-6.3l0,0
		c-0.7,2.7-0.4,5.8-2.5,8.1c-0.7,0.7,0,1.3,0.7,1.4c-0.2,0.2-0.5,0.2-0.7,0c-0.9,0.9-2,1.8-1.6,3.4h0.2v0.2c-2.9,0.7-0.9-2.2-2-2.9
		c-3.6,2-3.6,2.2-1.1,4.9c0.4,0.4,0.9,0.7,0.7,1.3c-1.3,4.2,1.8,3.8,4,3.4c6.5-0.7,12.8-2.2,18.8-4.9c11.6-5.4,21.2-13.4,30.9-21.2
		c2-1.6,4.9-3.3,4.7-6.7l0,0c3.6-0.7,11.2-9.6,11.9-13.9c1.6-2.7,3.8-5.2,5.1-8.1c5.1-12.5,4.7-19.5-5.2-29.1
		c0.7-0.2,2.2-0.5,2.2-0.7C918.8,205.6,921.7,203.4,921.5,200.7z"/>
	<path fill="#388E8E" d="M85.7,244.3c0.9,0.7,1.1,2,0.2,2.5c-4.5,2-6.3,6.3-8.9,10.1c-2.9,4.2-5.8,8.5-10.1,11.4
		c-0.4,0.2,0,1.4,0,2.4c-1.6,0.5-2.2-2.2-3.6-1.1c-1.4,1.1-0.5,2.5-0.4,3.8c0.2,2,0,4.3-1.6,5.2c-3.8,1.8-5.1,5.1-5.8,8.9
		c-0.2,0.9-0.7,1.1-1.4,1.3c1.1-9.2,5.8-17,10.7-24.6c8.7-13.4,19.3-25.1,30-36.7c1.3-1.3,2.2-2.7,3.8-4.5c-6-1.1-10.7,1.4-15.5,2.2
		c-14.8,2.2-29.6,2.4-44.5,1.4c-1.8-0.2-4-0.4-5.6-1.4c2.7-2.4,5.2,0.2,8,0c6.3-0.4,12.8-0.9,19-0.5c7.1,0.5,13.7-1.6,20.8-1.4
		c3.3,0,6.9-0.9,10.1-2c4.2-1.3,9.4,0.9,12.3-4.2c0.2-0.4,1.8-0.2,1.4-1.6c-0.2-1.1-1.1-1.3-1.8-1.3c-3.8-0.4-7.8-0.4-11.4,0.4
		c-4.3,0.7-8.5,0.2-12.7-0.4c-1.6-0.2-2.5-0.4-4.3,0c-3.1,0.7-6.7-1.4-9.8,1.4c0,0-0.5-0.5-0.9-0.7c-3.8-2-7.2,1.4-11,0.9
		c0,0-0.4,1.3-0.5,1.8l0,0c-1.8,0.5-1.4-2.9-3.4-2c-3.3,1.4-7.4-1.4-9.9,2.4c-0.5,0.7-1.3,0.2-1.6-0.5c-0.4-0.9-0.7-1.1-1.6-0.4
		c-3.6,3.1-8.9,1.8-11.6-2.5c6.1,1.6,12.1,0.2,18.3-0.5c19.3-2.2,38.7-3.4,58-3.8c0.4,0,0.5-0.2,0.9,0c7.8,2.9,12.3-1.4,16.8-6.7
		c5.8-6.3,11.8-12.5,16.8-19.3c0.5,4-1.1,6.9-4.7,8.7c-2.7,1.3-5.2,6.3-3.8,6.9c3.4,1.1,1.3,2.2,0.7,4c-0.7,3.1-2.9,4.3-6.1,6.5
		c3.8,0.2,6.7,1.1,8.3-1.4c2.9-4,7.1-6.7,10.3-10.3c1.4-1.6,1.6-2.9,0.2-4.5c2.9-0.7,3.4,1.4,4.2,2.9c0.5,0.7,0,1.6-0.9,1.8
		c-1.8,0.2-2.4,1.4-2,2.9c0.4,1.4,1.6,2,2.7,2c1.6,0,2.2-1.4,2.7-2.7c1.3-3.6-1.3-8.7-5.8-10.3c-2.2-0.7-2.5-1.8-2.4-3.6l0,0
		c0.4,0,0.5,0,0.9,0c2.5,2.2,5.1,4.2,7.4,6.5c2.5,2.4,2.2,8.3-0.2,10.5c-2,1.8-3.6,3.6-5.1,6.1c1.8,1.4,4.2-0.2,6.3,1.4
		c-5.8,1.3-11,3.1-15,7.2c-2.7-5.1-5.6-4.7-8.7-0.4c-0.2,0.4-1.1,0.2-1.6,0.2l0,0c0-1.1,0-2.4-1.1-2.9c-1.4-0.5-1.1,1.3-1.8,1.8
		c-0.5,0.4-0.9,0.9-1.3,0.9c-4.9-1.1-7.4,4-11.9,4.2c-0.5,0-1.1-0.4-1.1,0.5c0.2,5.4-3.4,6.7-7.8,7.2c-1.6,0.2-2.9,0.7-3.4,2.5
		c-0.4,1.3-1.3,2.2-2.5,2.5c-0.2,0-0.7,0.2-0.7,0.2C91.5,239.6,85.5,240.3,85.7,244.3c-0.5,0.2-1.3,0-1.3,1.1c0,0.2,0.2,0.2,0.2,0.2
		C85.7,245.6,85.7,244.8,85.7,244.3z M137.4,208.7c-0.7,0.2-1.3,0.5-1.3,1.3s0.5,1.3,1.3,1.3c0.7,0,0.7-0.5,0.9-1.1
		C138.3,209.4,138.3,208.9,137.4,208.7z M133.1,212.7c0.2-0.2,0.4-0.5,0.4-0.7c0-0.2-0.2-0.4-0.4-0.5c-0.2,0.2-0.4,0.4-0.4,0.7
		C132.7,212.3,132.9,212.5,133.1,212.7z M120.4,213.6c0-0.2,0.2-0.4,0.2-0.5c-0.2,0-0.2,0-0.4,0
		C120.2,213.4,120.4,213.4,120.4,213.6z M60.9,275.6c-0.2,0-0.2-0.2-0.4-0.2c0,0,0,0.2-0.2,0.2c0.2,0,0.2,0.2,0.4,0.2
		C60.9,275.8,60.9,275.6,60.9,275.6z"/>
	<path fill="#388E8E" d="M851.2,283c-0.7-0.2-1.4-0.7-0.7-1.4c2.2-2.4,1.8-5.4,2.5-8.1c1.1-0.5,3.6,3.3,3.1-0.7
		c-0.5-2.9,0.5-3.8,2.5-4.7c1.8-0.7,2.4-2.2,1.4-4.2c-2.9,2.9-6.9,4.7-7.1,9.4c-2.5,1.4-4.9,3.1-5.1,6.3c0,1.1-0.7,1.8-1.8,2
		c-1.6,0.2-0.2-1.8-1.3-1.8c-2.7,2-0.2,6.1-3.4,7.8c0-6.1,2.7-11.4,6.3-16.3c2.5-3.6,5.2-7.1,8.7-9.9c1.3-1.1,0.9-2.2,0.2-3.3
		c-1.1-2.2-1.8-4.7-1.4-7.2c2.2,0.2,0.7,2.5,2.2,3.4c2.2-15.7,11.8-27.1,22.4-38c-2.2,0.2-4.3,0.4-5.6,2.2c-0.9,1.3-2.2,1.6-3.6,1.1
		c6.9-9,16.3-14.5,26.2-19.2c4.2-2,8.3-3.3,12.8-4.3c5.4-1.3,8.9,1.3,12.3,4.3c0.2,2.9-2.7,4.9-2.2,8c0,0-1.4,0.4-2.2,0.7
		c-1.8-0.7-3.8-0.9-5.8-0.7c-18.6,1.4-32.5,11-43.6,25.3c-4.5,6-8.5,12.5-9,20.2c0,1.1-0.9,2.7,0.5,3.4c1.3,0.5,1.8-0.9,2.5-1.6
		c6.7-5.1,13-10.3,20.2-14.6c0.2,1.1-1.1,1.6-1.3,2.4c-0.4,1.3-0.4,3.4,0.4,4.2c0.9,0.9,3.8-0.2,3.6-1.1c-0.5-2.5,1.8-3.1,2.5-4.7
		c4.7,2.4,4.7,2.4,4.2,4.7c-1.1-0.4-2-2.7-3.3-1.1c-1.4,1.8-4,2.7-4.5,5.2c0,0.9-0.2,1.6-1.1,2.2c-6,4.3-11.9,8.9-17.4,14.1
		C860.4,272.3,855.7,277.6,851.2,283z M888,209c-0.2,0.2-0.2,0.2-0.4,0.4C887.9,209.4,888,209.2,888,209c0.2,0,0.4-0.2,0.4-0.4
		C888.2,208.9,888.2,209,888,209z M867.3,258.6c0.7-0.2,1.6-0.2,1.8-1.1c0-0.2-0.4-0.4-0.5-0.4C867.6,256.8,867.3,257.5,867.3,258.6
		c-0.7,0-1.4,0-1.4,1.1c0,0.2,0.2,0.2,0.2,0.4C867.1,259.8,867.1,259.1,867.3,258.6z M904,201.6c0.5,0.7,3.3-1.6,2.4,1.6
		c-0.4,0.9,0.5,0.9,0.9,0.5c1.8-1.6,3.4-3.3,5.1-4.9c0.2-0.2-0.2-0.9-0.4-1.1C910.1,196.7,904.7,199.5,904,201.6
		c-2,0.2-2.7,1.1-2.4,3.1c0.2,0.5,0.5,1.1,1.1,0.7c1.3-0.7,2-1.8,1.4-3.4C904,201.8,904,201.8,904,201.6z M877.9,214.1
		c3.6,2.2,4.9-0.5,6.9-1.6c0.7-0.5,2-0.9,1.1-2c-0.7-1.1-2-1.4-3.3-0.4C881.2,211.4,880.3,213.2,877.9,214.1z M896.5,208.3
		c-1.6-3.3,2.4-3.4,2.9-5.4c-2.7-0.5-4.7,0.4-7.1,1.4C893.8,205.6,895.8,206.1,896.5,208.3z M914.6,198.6c0.7,2.4-2.4,4,0,6
		c0.7,0.7,1.6,0.2,2.2-0.5C917.9,202,917.3,200.4,914.6,198.6z M862.6,263.6c1.3-1.1,2.2-1.8,1.4-3.3
		C862.7,260.9,862.2,261.6,862.6,263.6z M851.9,270.1c-0.2-0.2-0.2-0.5-0.4-0.5c-0.2,0-0.5,0-0.7,0.2c-0.2,0.4,0,0.7,0.5,0.7
		C851.5,270.7,851.7,270.3,851.9,270.1z M885.9,214.5c0.2,0.2,0.5,0.4,0.7,0.2c0.2,0,0.2-0.4,0.4-0.7c-0.2-0.2-0.5-0.4-0.7-0.2
		C886.1,213.7,886.1,214.1,885.9,214.5z"/>
	<path fill="#388E8E" d="M239.7,234.2c3.1,2.9,1.4,6.3,0.7,9.6c-0.4,1.6-1.4,2.9-2.2,4.3c-0.2,0.4-0.7,0.7-0.4,1.3
		c0.5,0.5,0.9,0,1.3-0.2c8.1-4.7,16.3-9.4,24.6-13.9c4.7-2.7,9.8-4.7,15-6.1c5.1-1.4,9.4-0.2,13.7,2.2c3.1,1.6,3.6,4.7,3.3,8
		c-0.7,7.4-4.9,13.2-8.9,19c-6.1,9-14.5,16.3-19.5,26.2c-0.5,0.9-1.1,2-2.5,1.6c0.2-0.7,0.4-1.4,0.7-2c3.4-4.9,6.3-9.8,5.8-16.3
		c-0.2-2.5,0.9-8.5,4.3-7.6c6.7,2,8.9-1.6,11.4-6c0-0.2,0.2-0.2,0.4-0.4c3.3-3.4,5.8-9,5.2-12.1c0,1.6-2.2,2-2.2,3.6
		c0.2,3.4-1.6,1.8-3.1,1.4l0,0c0-1.6-0.5-3.6,0.9-4.7c4-3.1-0.5-7.1,1.3-10.5c0.2-0.4-1.1-0.4-1.6-0.7c-2.9-1.6-5.4,1.6-8.5,0
		c0.9,2.9,3.3,5.2,1.3,7.2c-2,2-3.3,4.5-5.2,6.5c-5.6,5.6-10.1,12.1-16.1,17.4c-2.2,1.8-2.7,3.8-1.1,6.3c1.6,2.5,4,2.2,6.3,1.6
		c1.6-0.4,3.3-0.7,5.8-1.3c-6.9,6.1-8.9,6.5-15.9,4.5c-0.9,1.1,1.3,2.7-0.5,3.8c-3.8-5.4-0.5-9.9,2.5-13.9
		c5.4-6.9,11.2-13.4,17-19.9c1.6-1.8,3.1-3.6,4.2-5.6c0.4-0.9,0.2-1.4-0.9-1.1c-13.4,1.6-24.4,8-34.4,16.8
		c-7.2,6.5-12.8,14.5-20.1,20.8c-0.5-3.1-4.2-1.3-5.6-3.1c3.3-1.3,6.3-2.2,6.3-6.7c0-1.3-1.3-7.1,4.3-4.9c0.5,0.2,1.3-0.4,0.9-0.9
		c-2-4.5,2.2-6.5,4-9.4c1.1-2,6.1-1.4,3.6-5.6c0,0,0.2-0.2,0.2-0.4C239.2,240.9,237.7,236.7,239.7,234.2z M276.2,268.5
		c-0.4,0.4-0.5,0.5-0.9,0.9c0,0.2-0.2,0.2-0.2,0.4c0-0.2,0.2-0.2,0.2-0.4C275.7,269.1,276.1,268.7,276.2,268.5c0.2,0,0.2,0,0.4-0.2
		v-0.2C276.6,268.2,276.4,268.3,276.2,268.5z M277.2,231.6c-0.4,0.2-1.1-0.4-0.9,0.5C276.6,232.2,276.8,232,277.2,231.6
		c0-0.2,0.2-0.2,0.2-0.4C277.3,231.5,277.2,231.6,277.2,231.6z M277.7,262.2c-1.1,0.4-1.4,1.3-1.4,2.2c0,0.9,0.5,1.6,1.4,1.4
		c1.1-0.2,1.8-0.9,1.4-2C279.1,263.1,278.8,262.2,277.7,262.2z M231.8,261.1c-0.2-0.2-0.2-0.5-0.4-0.7c-0.2,0-0.4,0-0.7,0.2
		c0.2,0.4,0.2,0.5,0.4,0.9C231.4,261.3,231.6,261.3,231.8,261.1z M222.2,270c0,0.2,0,0.2-0.2,0.4c0.2,0,0.4,0,0.4,0
		c0-0.2,0-0.2,0-0.4C222.6,270,222.4,270,222.2,270z"/>
	<path fill="#388E8E" d="M468.2,292.2c-6.9-4.3-11.6-9.8-9.4-18.8c2-0.9,4.2,0,6-0.5c2.7-0.7,6.1,0.2,8.1-1.8
		c2.7-2.9,6.1-4.3,9.4-6.3c4.7-3.1,9.9-4.7,14.5-8.5c5.4-4.7,11.8-8.7,18.4-12.1c7.8-4.2,15.2-9,23.5-12.3c0.9-0.4,2.2-1.4,2.5,0.5
		c0.2,1.3,0.2,3.4-1.3,2.9c-5.4-1.6-8.7,2.9-12.8,4.3c-2.4,0.9-3.8,1.4-0.7,3.6c1.8,1.3,3.3,2.7-0.9,3.3c-1.1,0.2-4.2,2-4.3,4.7
		c-2,0.7-3.1,2.7-5.2,3.1c-0.5,0.2-1.3,0-1.6,0.4c-3.1,2.5-6.1,4.7-10.5,5.2c-2.4,0.2-4.9,1.6-4.5,5.1c0,0.7,0,1.4-0.9,1.4
		c-5.8-0.2-4.3,4.5-5.4,7.6l0,0c-2.2-0.7-4.3,0-6.9-1.3c0.4,2.2,1.3,3.6-1.1,4.7c-2,0.7-2.9-1.3-4.7-0.5c0.9,2.2,2,4.3,2.9,6.5
		c0,0-0.2,0.2-0.2,0c-2.4,0.4-4.9,1.1-5.6-2.5c-1.1,1.6-3.6,2.9,0,4.3c1.4,0.5,0,1.4-0.7,2C474.4,289.5,471.5,290.9,468.2,292.2z
		 M469.7,285.2c0.7-1.1,2.2-2,2.4-3.3c0.2-1.1-1.4-1.4-2.5-1.6c-1.6-0.4-2.4,0.9-2.5,2.2C467,283.7,468.1,284.4,469.7,285.2z"/>
	<path fill="#388E8E" d="M521.2,251.3c0.2-2.7,3.3-4.5,4.3-4.7c4.2-0.5,2.7-2.2,0.9-3.3c-3.1-2-1.6-2.7,0.7-3.6
		c4.2-1.4,7.4-6,12.8-4.3c1.4,0.4,1.4-1.8,1.3-2.9c-0.4-2-1.4-0.9-2.5-0.5c-8.3,3.3-15.7,8.1-23.5,12.3c-6.5,3.4-13,7.4-18.4,12.1
		c-4.5,4-9.8,5.6-14.5,8.5c-3.1,2-6.7,3.4-9.4,6.3c-2,2-5.4,1.1-8.1,1.8c-2,0.5-4-0.4-6,0.5c-0.9-2,1.1-2.5,2-3.4
		c2.7-2.5,5.6-5.1,8.5-7.6c0.2,1.3,1.1,2.7,0.5,3.6c-1.3,2.7,1.3,1.6,1.4,1.4c3.1-3.4,8.5-4,10.7-8.5c0.5-1.1,0.9-2.5,2.7-0.9
		c0.7,0.7,1.4-0.2,2.2-0.7c1.8-1.4,3.3-3.3,6-3.4c1.4,0,2-2.2,1.4-3.3c-0.2-0.4-0.2-0.9-0.2-1.1c0.4-0.7,1.1-1.1,1.8-0.7
		c4,2.5,6.7-0.9,10.5-2.2c-2.4-1.1-3.3-5.1-5.8-1.3c-0.7,1.1-1.3,3.1-2.9,1.8c-1.6-1.3-0.4-2.9,0.7-3.8c3.1-2.7,5.1-6.5,7.4-9.8
		c1.4-2,2-3.6-0.5-5.1c-1.1-0.5-1.3-0.9-0.4-1.6c0.9-0.7,1.8-1.4,2.7,0c0.4,0.7,0,1.8,1.4,2.2c-0.4-2.2,1.6-2.4,2.7-3.3
		c0.4-0.4,1.4,1.3,1.8-0.2c0.2-1.1-0.4-2-1.4-2.4c-2.5-0.9-4-2.7-5.2-5.1c4.2,2,8.9,3.3,9,9.2c0,1.4-0.2,2.5-0.7,3.8
		c-2,4.3-4.9,8.3-7.4,12.5c-0.4,0.4-1.3,0.7-0.5,1.4c0.5,0.5,1.1-0.2,1.6-0.5c9.6-6,19.5-11.4,30.2-15.4c4.9-1.8,9.9-2.7,14.8,0.2
		c-1.8,2.2-1.8,5.6-5.1,6.9c-0.7,0.4-0.4,1.6-0.4,2.7c0.4,2.9-0.2,6-2.4,7.6c-1.6,1.3-2.2,3.1-3.4,4.2c-0.9-1.3-2-2.2-3.4-2.5
		c-0.4-2.5,2.5-4.2,1.8-7.2C534.2,244.5,527.7,247.9,521.2,251.3z M507.8,239.2c0.5,0,1.1,0,1.3-0.7c0-0.2-0.4-0.5-0.4-0.5
		C507.8,238.1,507.8,238.7,507.8,239.2c-0.5,0.2-1.1,0.2-1.3,0.9c0,0.2,0.4,0.5,0.5,0.4C507.8,240.3,507.7,239.8,507.8,239.2z
		 M531.2,243.4c0.9-0.2,1.6-0.4,1.4-1.4c0-0.2-0.5-0.7-0.7-0.7C531,241.8,531.3,242.7,531.2,243.4c-0.5,0.2-1.3,0.2-1.8,0.4
		c0,0.2,0.2,0.4,0.2,0.4C530.3,244.3,530.8,244.1,531.2,243.4z M547.1,229.3c0.2,1.1,1.1,1.6,1.6,2.4c1.1,1.6,1.8,0.2,1.6-1.1
		C550,228.6,548.3,229.3,547.1,229.3z"/>
	<path fill="#388E8E" d="M287.1,246.8c1.4,0.5,3.4,2.2,3.1-1.4c0-1.6,2.2-2,2.2-3.6c0.5,3.1-1.8,8.7-5.2,12.1
		c-0.2,0.2-0.2,0.2-0.4,0.4c-2.5,4.3-4.7,8-11.4,6c-3.4-1.1-4.5,4.9-4.3,7.6c0.5,6.5-2.4,11.4-5.8,16.3c-0.4,0.5-0.5,1.3-0.7,2
		c-4.2,1.1-5.8-2.2-8-4.5c-1.3-1.3-2.5-2.5-2.9-4.5c1.6-1.1-0.4-2.5,0.5-3.8c7.1,2,9,1.4,15.9-4.5c-2.7,0.5-4.3,1.1-5.8,1.3
		c-2.4,0.5-4.7,0.9-6.3-1.6c-1.6-2.5-1.1-4.5,1.1-6.3c6-5.2,10.5-11.8,16.1-17.4c2-2,3.3-4.5,5.2-6.5c2-2-0.5-4.5-1.3-7.2
		c3.1,1.6,5.6-1.6,8.5,0c0.5,0.4,2,0.4,1.6,0.7c-1.8,3.4,2.7,7.2-1.3,10.5C286.7,243,287.3,245.2,287.1,246.8
		c-2.4,0-1.1,2.9-2.9,3.4c-1.1,0.4-1.6,1.3-0.5,2c0.9,0.7,2,0.4,2.7-0.7C287.5,250.1,287.1,248.3,287.1,246.8z M284,235.1
		c-0.2-0.4-0.4-0.7-0.4-0.7c-0.4,0-0.9,0.2-1.1,0.4c-0.4,0.4,0,0.9,0.5,0.7C283.5,235.6,283.8,235.3,284,235.1z"/>
	<path fill="#388E8E" d="M411.7,277.6c-0.5,0-1.1,0-1.6,0c-1.6,0.2-3.1,1.3-4.7,0.2c-1.1-0.5-2.2,0.2-2.2,1.1
		c-0.2,3.6-1.4,3.3-3.4,1.3c-1.6-1.6-3.3-0.7-5.1-0.2c-2.2,0.7-0.9,2.2-0.7,3.4c0.5,2-0.9,2.9-2.4,3.1c-2.7,0.2-5.6,1.1-8-0.7
		c-1.4-1.1-2.5-0.4-3.8,0.2c-2.5-0.9-4.7-2.4-6-4.9c2-2.7-2-4.5-1.1-7.2c3.4-0.5,5.2,1.6,7.1,4c0.7,0.9,1.1,2.4,2.7,2
		c4.7-0.7,9.2-1.4,13.6-3.4c12.3-5.8,21.5-14.5,26.9-26.9c2-4.5,4.3-9.4,1.6-14.5c-0.5-1.6-1.1-3.4-1.4-5.1c1.6-1.8,0.2-1.4-0.9-1.6
		l0,0c0.2-3.3,3.8-3.8,5.1-3.8c3.1,0.4,6,1.8,6.9,5.6c2.5,10.5-0.7,19.7-6,28.4c-2,3.3-3.6,7.1-7.8,8.5c-0.5-1.6,0.7-2.4,1.3-3.1
		c0.5-0.9,0.9-1.1-0.4-2c-1.4-1.3-2.5-1.3-3.3,0.4c-0.4,1.1-3.6,1.6-0.7,3.6c1.8,1.3,0.9,3.3,0,4.9c-0.5,0.9-1.4,0.9-2,0.2
		c-0.7-1.1-0.2-3.8-2.7-1.4c-1.6,1.4-4.2,2.5-1.4,5.2C411.8,275.4,411.7,276.7,411.7,277.6z M429.2,252.6c-1.4-0.2-2.4,0.4-2.9,1.8
		c-0.4,0.9-1.8-1.6-2,0.5c0,0.9,0.5,1.4,1.4,1.8c1.1,0.2,1.8-0.4,2.4-1.3C428.7,254.4,428.8,253.5,429.2,252.6
		c0.2-0.5,0.5-0.9,0.7-1.4c-0.2,0-0.4-0.2-0.5-0.2C429.4,251.5,429.4,252.1,429.2,252.6z M424,261.1c-0.2-0.2-0.2-0.5-0.4-0.5
		c-0.2,0-0.4,0.2-0.7,0.2c0.2,0.2,0.4,0.5,0.4,0.7C423.6,261.3,423.8,261.3,424,261.1z"/>
	<path fill="#388E8E" d="M52.2,217.5c0.2-0.7,0.4-2,0.5-1.8c3.8,0.5,7.2-2.7,11-0.9c0.4,0.2,0.9,0.7,0.9,0.7
		c3.1-2.7,6.7-0.7,9.8-1.4c1.8-0.5,2.9-0.2,4.3,0c4.2,0.5,8.3,1.1,12.7,0.4c3.6-0.5,7.6-0.5,11.4-0.4c0.9,0,1.6,0.2,1.8,1.3
		c0.4,1.4-1.3,1.3-1.4,1.6c-3.1,5.1-8.1,2.9-12.3,4.2c-3.4,0.9-6.9,2-10.1,2c-7.1-0.2-13.7,2-20.8,1.4c-6.1-0.4-12.7,0-19,0.5
		c-2.7,0.2-5.2-2.4-8,0c-8.7-1.8-9.6-2.9-12.3-12.8c1.6,0,2.2,1.3,3.3,2.2c2.7,4.3,8,5.6,11.6,2.5c1.1-0.9,1.3-0.7,1.6,0.4
		c0.4,0.7,1.1,1.3,1.6,0.5c2.7-3.8,6.9-0.9,9.9-2.4C51,214.5,50.4,217.9,52.2,217.5l0.2,0.2C52.4,217.5,52.4,217.5,52.2,217.5z
		 M40.5,221.7c-1.6-1.8-3.1-2.2-4.7-1.3c-1.1,0.5-2.2,1.3-3.4,0.2c-0.7-0.5-1.8-0.9-2,0.2c-0.4,1.3,0.7,1.8,1.6,1.8
		C34.5,222.4,37.2,223.1,40.5,221.7z"/>
	<path fill="#388E8E" d="M166.9,273.6c1.6-0.9,3.4-1.6,5.1-2.5c1.4,0,2.9,0,3.3-2H175c4.9-1.3,8.5-4.7,12.5-7.6
		c1.4-1.1,3.8-1.4,3.6-4l0,0c0.7,0,1.6-0.2,2.4-0.4c3.3-0.4,3.6,0.7,2,5.4l0,0c-2.5-0.2-4.2,0.7-4,3.6l-0.2-0.2
		c-0.5,0-0.9,0.4-0.9,0.9l0,0c-0.5,0-0.7,0.4-0.9,0.9l0.2,0.2c-2.4,0.2-4.7,0.9-7.1,0.2c-1.1-0.4-1.4,0.7-2,1.1
		c-0.7,0.5-2.2,0.4-1.3,1.8c0.5,0.9,1.4,0.7,2-0.2c0.5-0.5,1.1-0.9,1.8-0.2c0.5,0.5,0.4,1.1-0.2,1.4c-2.5,1.8-5.1,3.4-7.6,5.1
		c-2,1.3-1.6-1.3-2.5-1.6c-1.1-0.4-2,0.2-3.1,0.7c-3.1,1.3-6.1,3.1-9.8,2.5c-0.9-0.2-1.3-0.9-1.4-1.6c2-2.5-0.2-5.2,0.4-8
		c0.9-3.8,3.1-7.1,3.8-10.8c0.2-0.9,0.5-2-0.5-2.5c-0.9-0.4-1.4,0.5-2.2,0.9c-2.7,1.6-3.4,4.2-3.1,7.1c-0.9,1.1-2.2,1.8-3.4,2.4
		c-1.6-0.7,1.8-4.2-1.6-3.4c-1.6,0.4-4,1.6-3.4,4.3c-1.1-0.5-3.1-1.1-2.9,0.5c0.4,2.7-1.6,3.8-2.9,5.2c-1.4-2.5-2.2-4.9,1.1-6.7
		c0.2-0.2,0.2-0.7,0.2-1.1l0.2,0.2c0.4,0,0.9-0.2,1.3-0.2c-0.2-0.2-0.2-0.4-0.4-0.5c4.9-3.6,9.2-8.1,14.6-10.8
		c0.9,0,1.3-0.5,1.3-1.4l0.2-0.2h0.2c0.5-0.4,0.9-0.5,1.4-0.9h0.2c1.4,0.2,3.1-0.2,5.2,2c-1.1-3.1,0.4-5.2-1.4-6.9
		c0.5-3.6-2.4-2.9-4.2-3.4c-0.4-2.7-2.4-0.7-3.6-1.3c1.1-2.4,1.3-5.8,5.4-4.7h-0.2c0.4,1.4,1.3,2,2.7,1.6v-0.2c0,0.2,0,0.5,0.2,0.7
		c0.2-0.2,0.4-0.4,0.5-0.5c2,2.4,3.8,4.2,7.6,3.6c2-0.2,4.3,2,5.6,4.3c-1.4,1.4-2.4,3.1-5.1,2.7c-1.6-0.4-4,0.7-4,3.6
		c0,2.7-1.4,5.1-1.6,8c0,2.5-1.8,6.7-5.6,8.5c-1.6,0.7-2.7,3.1-1.4,5.1C164.3,275.9,165.6,274.5,166.9,273.6z"/>
	<path fill="#388E8E" d="M670.4,258c4.7-3.6,9.4-7.4,14.6-10.5c0.4,2.4-2.4,2.7-3.1,4.5c1.8,0.5,2.7-0.7,4-1.3
		c0.9-0.4,1.6-1.1,1.4-2.2c-0.4-1.3-1.4-0.9-2.4-1.1c3.6-2.7,7.4-5.1,11.8-6.5c1.6-0.5,3.4-1.3,5.1,0c-1.8,2.2-5.1,0.9-7.1,2.9
		c4.7,1.1,4.7,1.1,7.4,11.2c1.3-4.9,5.8-8.1,2.4-12.8c5.2,2.7,5.6,4.7,2.4,14.6c2.7-0.4,4.5-2.2,6.5-3.3c4.2-2.4,8.1-4.7,12.1-7.1
		c1.4-0.9,2.9-1.6,4.7-1.3l0,0c0.7,1.6-0.7,2-1.4,2.4c-9.4,4.7-15.5,12.8-21.9,20.6c-4.5,5.6-10.3,9.6-15.9,13.7
		c-1.6,1.1-2.7,0.2-3.6-0.5c-2.7-2.2-5.1-4.7-5.4-8.5c1.6,0.9,2,2.7,2.9,4c2.2,2.7,4.5,4.5,8,1.8c2.7-2.2,5.8-3.6,7.1-7.2
		c0.9-2.7,4.9-3.1,6-4.9c1.6-3.1,4.2-4.5,6.3-6.7c0.7-0.7,1.4-1.3,2-2.2c0.4-0.5,0.7-1.3,0-1.8c-0.5-0.5-1.1-0.2-1.4,0.2
		c-6,3.6-11.8,7.4-17.5,11.2c-2.4,1.4-5.1,3.4-7.2,2.7c-3.1-0.7-4.5,0.2-6,2.4c-1.6-5.1,1.8-7.8,5.2-10.3c0.7,1.4-2.4,2.5-0.4,4
		c1.4,0.9,2.5,0,3.4-1.3c0.2-0.4,0.7-0.7,1.1-0.5c5.2,1.1,7.8-2.2,9.9-6c0.4-0.5,1.1-1.1,0.7-1.8c-0.4-1.1-1.3-1.1-2-0.9
		c-3.6,0.5-7.4,0.4-9.8,4.3c-0.5,1.1-1.4,2.4-3.3,2.4c0.9-4.2,5.1-5.8,6.9-9.4c0.5-1.3,2-2,1.6-4c-9.9,2.9-16.6,10.5-23.9,17
		c-0.5-1.4,0.5-2.2,1.3-3.1c0.9-0.9,2.2-1.6,1.3-3.1c-0.5-1.3-2-0.5-2.9-0.7C670.7,258.4,670.6,258.2,670.4,258z M679.1,253.9
		c-2.2,0.5-3.4,1.3-4,3.3c-0.2,0.5,0.5,1.3,0.9,0.9C677.6,257.3,679.1,256.4,679.1,253.9z M696.4,252.4c0.2-0.2,0.5-0.2,0.7-0.4
		c0-0.2,0-0.4-0.2-0.7c-0.4,0.2-0.5,0.2-0.9,0.4C696.2,251.9,696.4,252.1,696.4,252.4z M694.4,254.1c0,0.2-0.2,0.2-0.2,0.4
		c0.2,0.4,0.4,0.4,0.5,0c0,0,0-0.2,0-0.4C694.8,254.1,694.6,254.1,694.4,254.1z"/>
	<path fill="#388E8E" d="M835.4,241.8c1.6,0.5,2,2.5,4,2.7c1.3,0.2,1.3,1.4,0.4,2.2c-1.8,1.8-2.9,4.5-5.8,5.1
		c-0.7,0.2-1.3,0.4-1.8,0.7c-2.4,1.6-2.2,6.5-3.3,6.1c-4.5-0.9-3.3,3.4-5.1,4.7c-2.2,1.4-1.3,3.1,0.5,4.9c-4.5-2.5-5.4,3.1-8.5,3.3
		c1.8-4.2,6.1-6.9,7.8-12.3c-3.8,1.8-6.9,3.4-9.9,4.9c-0.5-3.8,3.1-2.7,4.7-4c4.7-3.4,9.2-7.1,13-11.6c1.1-1.3,3.1-1.6,3.3-3.6
		c0.2-0.4,0.4-0.5,0.5-0.9c0,0-0.2-0.2-0.4-0.2c-0.2,0.4-0.2,0.7-0.4,1.1c-1.3,0-2.4,0.5-3.4,1.3c-9,6-18.6,11.2-28.4,16.1
		c-6.7,3.4-14.1,5.4-21.2,8.1c-2.5,0.9-1.6,3.6-2.5,5.4c-0.5,0.9,2,0.9,3.1,0.7c4.2-0.2,7.8-2,11.4-3.6c5.8-2.5,10.7-7.6,17.5-8
		c-0.5,2.7-3.1,3.1-4.9,4c-8.9,4-17.7,8.1-26.8,11.4c-6.7,2.4-9.9,1.4-14.1-3.4c-3.4-4.2-3.6-8.5-0.4-13.9
		c2.9-4.9,6.9-8.5,11.8-11.4c0,1.8-0.7,4-2,4.3c-4.2,1.3-2.2,2.5-0.4,4c-0.5,0.2-0.5,0.5,0,0.9c0,1.1-2,2.2,0,3.3
		c-2.9,1.1-2.9,1.1-1.3,4.2c0.5-1.4,0.9-2.7,1.4-4c1.1-0.5,2.4-1.1,3.4-1.6c-0.4,0.9-0.9,1.6-1.3,2.5c-0.5,1.4-3.3,2.4-2,4
		c1.1,1.3,3.3,0.2,4.7-0.2c12.1-3.3,23.3-8.9,34.4-14.5C821.3,251,828.4,246.5,835.4,241.8z M774.3,276.8L774.3,276.8
		c0.2-1.3,0.9-2.7-1.6-2.5c-1.6,0.2-3.6,0-4,2c-0.5,3.3,1.3,2,2.7,1.4c1.4,5.2,4.7,1.1,7.6,1.6C776.7,277.2,776.7,277.2,774.3,276.8
		z M766.7,265.3c-0.9,0.2-1.4,1.1-1.8,2.2c-0.2,1.1,0.5,1.1,1.3,1.1c1.3,0,2.2-0.7,2.2-2C768.5,265.8,768,265.3,766.7,265.3z
		 M769.4,260.2c-1.3,0.4-1.8,1.3-1.8,2.5c0,0.7,0.4,1.4,1.3,1.4c1.6-0.2,1.1-1.6,1.4-2.5C770.7,260.7,770.5,260.2,769.4,260.2z
		 M767.8,273c-0.2,0.2-0.5,0.2-0.5,0.4s0,0.5,0.2,0.5c0.4,0.2,0.7,0,0.7-0.5C768.2,273.2,768,273.2,767.8,273z M824.4,258.9
		c-0.2-0.2-0.2-0.4-0.4-0.5c-0.2,0.2-0.4,0.2-0.2,0.4c0,0.2,0.2,0.4,0.2,0.5C824.2,259.1,824.2,259.1,824.4,258.9z"/>
	<path fill="#388E8E" d="M539.3,248.1c1.4,0.4,2.4,1.3,3.4,2.5c1.4-1.3,2-3.1,3.4-4.2c2-1.4,2.7-4.7,2.4-7.6
		c-0.2-1.1-0.5-2.4,0.4-2.7c3.3-1.3,3.3-4.7,5.1-6.9c1.1,0.2,2,0.5,2.7,1.4c-0.7,0.4-1.1,0.9-0.5,1.6c1.6,2.5,1.6,2.5,0,4.9
		c-0.2,0.2-0.2,0.5-0.2,0.7c1.4,2.9-1.1,4.5-1.8,6.7c-0.7,2.2-3.3,1.8-3.4,3.8c-0.7,6.5-7.6,9.2-8.7,15.5c2.2,0,4.3,0.7,5.8-2.4
		c0.9-1.6,4.2-0.9,4.9-3.3c0.2-1.6-3.4,0-2-2.5c1.3-2.2,2.5-0.7,3.6,0c0.2,0.9,0.9,1.1,1.6,0.9c0.9,0.7,1.3,1.6,1.4,2.5v-0.2
		c-0.4,0.4-0.5,0.5-0.9,0.9h0.2c-0.5,0-1.3,0-1.6,0.2c-3.3,3.8-6.5,7.4-9.4,11.4c-0.7,1.1-1.4,2.7-2.5,2.7c-1.4,0-0.7-1.8-0.9-2.7
		c0.4-0.2,1.1,0.4,0.9-0.5c-0.4,0.2-0.5,0.4-0.9,0.7c-3.4,1.3-5.6,3.3-5.1,7.2c0.2,0.5,0.7,1.4-0.2,1.8s-2.2,0.5-2.7-0.4
		c-2.4-3.4-4-0.9-5.6,0.7c-2.4-1.4-4.7-2.9-5.1-6c1.1,0,2.2-0.4,3.3-0.5c2.5-0.5,5.1-0.9,7.1-2.9c0.9-0.9,1.1-1.6,0.4-2.5
		c-0.7-0.7-0.9-2.2-2.2-2.4c-0.5,0-1.3,0.4-1.1,0.9c0.5,2.2-0.2,2.4-2,1.8c-2.2-0.7-1.6-1.8-0.9-3.3c0.5-1.3,0.5-2.7,0.7-4l0,0
		c4.9-0.2,4.3-4.3,5.2-7.4l0,0C537.3,254.2,539.3,251.9,539.3,248.1L539.3,248.1z"/>
	<path fill="#388E8E" d="M638.9,279.5c-2.4-3.3-0.9-6.3,0.2-9.4c0.9-2.5,2-4.9,3.3-8.1c-4,1.4-6.9,3.4-9.6,5.6
		c-7.2,6-14.6,11.8-23,16.3c-2,1.1-4,3.1-6.7,1.3c0.2-1.8-0.5-4.5,2.9-2.2c1.1,0.7,2.7-0.2,3.8-0.9c1.1-0.9,0.4-1.6-0.2-2.5
		c-1.1-1.4,0-2.2,0.7-3.1c1.6,0.7,1.4,3.6,3.4,2.9c3.3-1.3,5.4-4.2,8.1-6.1c2.2-1.4,4.3-3.4,6.9-4.7c2.2-1.1,3.4-2.5,2.5-4.9
		c-0.9-2.4-2.5-2-4.3-1.3c-0.5,0.2-1.4,0.2-2,0.2c7.6-4.7,14.5-10.7,22.6-14.3c0.5,2.2,5.1,1.4,3.8,4.9c0.5,0.2,1.1,0.2,1.6,0.4
		c3.3,0.2,4.2-2.4,2.4-6.3c4.3,0.7,5.6,3.3,5.1,7.4c-0.7,5.2-3.6,9.2-6.1,13.6c6.3-2.2,11-6.9,16.6-10.1c0.2,0.2,0.4,0.4,0.4,0.5
		c-2,2.9-5.2,4.3-7.8,6.7c-4,3.8-10.1,4.5-13.6,9c-0.9,1.1-2.5,2.4-4,1.3c-1.4-1.1,0-2.4,0.7-3.4c0.9-1.8,0.2-4-1.3-4.7
		c-1.4-0.7-2,1.6-2.4,2.7C641.3,273.2,640,276.3,638.9,279.5z M635.3,263.5c1.3-0.5,3.6-1.3,2.5-2.4c-2.7-3.1-0.2-2.9,1.6-3.4
		c1.3-0.4,1.4-1.3,1.1-2.2c-0.5-1.6-1.4-0.5-2.2,0c-1.6,1.1-3.3,2-4.7,3.3c-0.7,0.7-2.2,1.6-1.6,2.5
		C632.6,262.2,634.2,262.7,635.3,263.5z M651,262.2c-2.5-0.4-4.2-1.1-5.8,0.4c-0.4,0.4-0.4,1.1,0.2,1.4
		C647.4,264.7,649,264.4,651,262.2z M654.1,260.9c-0.9,0-1.6,0.4-1.4,1.4c0.2,0.9,0.5,1.6,1.6,1.4c0.9-0.2,1.3-1.1,1.3-1.8
		C655.5,261.3,654.8,260.9,654.1,260.9z"/>
	<path fill="#388E8E" d="M239.7,234.2c-2,2.5-0.5,6.7-3.6,8.7c-0.2,0-0.2,0.2-0.2,0.4c2.5,4.3-2.5,3.8-3.6,5.6
		c-1.8,2.9-5.8,4.9-4,9.4c0.2,0.5-0.4,1.3-0.9,0.9c-5.6-2.2-4.3,3.6-4.3,4.9c0,4.5-3.1,5.4-6.3,6.7c1.4,1.8,5.1,0,5.6,3.1
		c-0.5,0.5-1.1,1.1-1.8,1.8c-1.1-2.4-3.1-2.4-4.9-1.4c-1.3,0.7-2.4,2.2,0.5,2.4c0.5,0-0.2,0.7-0.5,1.1c-2.9,2.5-5.6,5.2-7.8,8.5
		c-4.9-1.6-7.1-5.4-8-9.9c7.1-3.8,15-6,20.6-12.1c-2.4,0.4-5.4-1.8-6.7,1.4c-1.1,2.5-2.9,2.5-5.1,2.5l-0.2-0.2
		c0.7-3.6,3.8-5.2,6.1-7.4c4.9-4.7,7.1-11.8,13.4-15.2c0.9-0.5-0.4-2.4,1.3-1.8c1.3,0.4,1.1,1.8,1.1,2.9c0,0.2-0.2,0.2-0.2,0.4
		c0-0.2,0.2-0.2,0.2-0.4c1.1-0.7,2.2-1.4,3.3-2.2c0-1.1-3.6-0.7-1.1-2.9c-2.2-1.3,0.4-4.5-2-5.6c-2.9-1.3,0.2-2.4-0.2-3.4
		C233.8,231.3,236.8,232.2,239.7,234.2z"/>
	<path fill="#388E8E" d="M337,254.1c0.4,1.4-0.2,2.7-1.3,3.3c-7.1,4-13.2,9.4-20.6,12.8c-4.9,2.2-9.9,2.2-14.8,0.5
		c-1.3,1.1,1.3,2.7-0.5,3.6c-2.9-3.4-2.4-7.1-0.9-10.8c1.3-3.4,3.1-6.7,5.6-9.4c0.7,3.3-2,4.9-3.1,7.4c-0.5,1.1-1.4,2.9-0.7,3.3
		c2.7,1.3,5.8,3.1,9,1.8c1.3-0.5,3.1-2.5,0.7-3.6c-2.9-1.3-1.1-2.4-0.4-3.6c3.1-4.9,7.4-8.9,11.9-12.5c6.3-5.1,12.8-10.5,20.6-13.6
		c1.4,0.9,2.7,1.8,4.3,2.5c3.3,1.6,4.3,4.2,3.3,7.6c-1.4-2.7-1.8-6.1-5.6-7.1c-0.9-0.2-2-0.9-2.5,0.2c-1.1,1.8-2,3.6-1.8,5.8
		c0.2,1.3,1.4,1.1,2.4,1.1c1.3,0.2,2.9-0.5,3.3,1.6c-7.4-0.9-13.9,1.6-19.3,6.7c-1.3,1.1-2.7,2-4,3.1c-4.5,3.8-8.7,7.8-11.6,14.1
		C320.9,265.1,328.9,259.5,337,254.1z M302.5,268.2c0-0.2,0-0.2-0.2-0.2c-0.2,0-0.2,0-0.4,0c0,0.2,0.2,0.4,0.2,0.4
		C302.3,268.2,302.5,268.2,302.5,268.2z"/>
	<path fill="#388E8E" d="M424.9,235.3c2.7,5.2,0.2,10.1-1.6,14.5c-5.4,12.3-14.6,21.2-26.9,26.9c-4.3,2-9,2.7-13.6,3.4
		c-1.8,0.4-2-1.1-2.7-2c-1.8-2.2-3.8-4.5-7.1-4c-0.9,2.7,3.1,4.3,1.1,7.2c-2.7-3.3-3.4-6.9-2.7-10.8c1.8-10.1,7.2-18.4,14.3-25.5
		c0,0.2,0.2,0.5,0.2,0.7c-2.7,5.2-5.1,10.5-9,15c-1.4,1.4-1.3,4.2-2.5,6c-0.7,1.1,1.1,1.4,1.3,1.3c1.8-2.7,4.2-1.1,6.3-0.9
		c0.7,0,1.4-0.2,1.6-1.1c1.8-5.1,5.2-9.4,6.7-14.6c0.5-2,2-4.3,3.1-6.7c0.4-0.7,1.3-1.3,2.2-0.9c3.4,1.6,5.6-0.4,7.4-2.7
		c2.2-2.5,3.3-5.1,0.4-8c-0.4-0.4,0-1.1,0.5-1.4c4.2,4.5,4,6.1-0.2,11c-6.9,8-14.5,15.4-19.2,24.9c-0.5,0.9-1.1,2-1.4,2.9
		c-0.5,2.2-2.9,4.5-0.9,6.5c1.6,1.6,4.5,0.7,6.7,0c19.9-6.7,32.9-19.3,36.3-40.9C424.7,236,424.7,235.6,424.9,235.3z M375,272.5
		c0.9,0,1.4-0.2,1.1-1.1c-0.2-0.7,0-1.8-1.3-1.4c-0.7,0.2-2,0-1.8,1.1C373,272.1,374.2,272.1,375,272.5z M392.3,252.6
		c-0.2,0-0.4-0.2-0.5-0.2c0,0-0.2,0.2-0.2,0.4s0.2,0.4,0.4,0.5C392,253,392.1,252.8,392.3,252.6z M378,271.2c0,0.2,0,0.2,0,0.2
		s0.2,0,0.4,0c0-0.2,0-0.4,0-0.5C378.2,271.2,378,271.2,378,271.2z"/>
	<path fill="#388E8E" d="M624.6,262.6c0.7,0,1.4,0.2,2-0.2c1.8-0.7,3.4-1.1,4.3,1.3c0.9,2.5-0.4,4-2.5,4.9c-2.5,1.3-4.7,3.3-6.9,4.7
		c-2.9,2-4.9,4.9-8.1,6.1c-1.8,0.7-1.8-2-3.4-2.9c-0.7,0.9-1.6,1.6-0.7,3.1c0.5,0.7,1.4,1.6,0.2,2.5c-1.1,0.7-2.7,1.8-3.8,0.9
		c-3.4-2.4-2.9,0.2-2.9,2.2c-8.7-2-11.4-9.2-6.3-17.4c4-0.7,4.3-4,5.2-7.1v0.2c0.9-0.2,0.9-0.9,1.1-1.6c0.4-0.9,0.7-1.4,1.4-1.8
		c1.8,1.3,2.5-0.5,3.3-1.4c2.2-2.7,2.5-1.1,3.3,0.9c1.4,3.4-2.5,4.2-3.1,6.5c-0.7,0-1.8-0.2-2,0.2c-1.8,2.9-3.8,5.6-5.2,8.7
		c-0.5,1.1,1.1,2.5,2.2,3.3c1.3,0.9,2.2-0.5,3.3-1.3c1.3-0.9-0.7-1.1-0.5-1.8c0.7,0,1.6-0.2,2.4-0.2c5.4,1.3,8.5-1.4,10.8-6h-0.2
		C621.7,266.7,623.9,265.6,624.6,262.6L624.6,262.6z"/>
	<path fill="#388E8E" d="M287.6,305.9c0.5,0.2,1.4,0.4,1.4,0.7c1.3,5.4,4,2.5,6.9,1.6c3.3-1.1,5.8-4.7,9.8-3.3
		c-0.9,0.5-1.6,0.9-2.5,1.4c-13.9,7.6-27.1,15.7-36.9,28.7c-3.8,5.1-5.2,11-8.7,16.1c-1.8-0.2-2.7,0.9-3.8,2c-2-2.7-2.2-5.4-0.5-8.1
		c2-3.4,4-6.9,6.7-9.9c1.4-1.6,3.1-3.3,2.7-5.6l0,0c3.8-0.2,4.3-3.1,5.1-5.8c0.2-0.2,0.2-0.4,0.4-0.5c-0.2,0.2-0.4,0.2-0.5,0.4
		c-0.5,0-1.1,0-1.6,0.2c-0.2-0.2-0.2-0.2-0.4-0.4c2.5-2.7,4.5-5.8,8.3-7.2c2,2.9,2.9,1.1,3.8-0.7c3.8,0.4,5.6-3.8,9.2-4.2
		c0.9,0,1.1-1.6,0.7-2.5c-0.5-1.3-1.6-0.9-2.4-0.4c-2.7,2.2-6,3.4-7.4,6.9c-1.3,0.4-2.4,0.5-3.6,0.9
		C277.7,311.2,282.6,308.5,287.6,305.9z M273,319c-0.2,0.2-0.5,0.2-0.5,0.4s0.2,0.4,0.2,0.7c0.2-0.2,0.5-0.4,0.7-0.5
		C273.4,319.3,273.2,319.1,273,319z M289.4,312.1c0-0.2,0-0.2-0.2-0.4c0,0-0.2,0-0.4,0c0,0.2,0,0.2,0.2,0.4
		C289.3,312.3,289.4,312.1,289.4,312.1z"/>
	<path fill="#388E8E" d="M557.2,259.5c0-1.1-0.5-2-1.4-2.5c-0.2-0.4-0.2-0.5-0.4-0.9l0,0c5.2-1.8,9.6-5.2,13.9-8.3
		c5.4-3.8,7.8-4.5,13.4-1.4c6.7,3.6,8,6.3,4,12.7c-2.7,4.3-4.3,8.7-5.4,13.6c-0.5,2.2-1.6,4.3-3.8,5.6c0-3.3-1.1-5.2-4.9-5.4
		c-2.5-0.2-8.1,2.5-9.8,5.2c-2.5-3.4-1.6-6.9,0.2-10.1c2.5-4.5,5.4-9,8.3-13.4c0.7-1.3,1.3-2.5,0.7-3.4c-0.7-1.3-2,0-2.9,0.2
		C563.9,252.1,561.4,256.8,557.2,259.5z M586.8,252.8c0.4-1.3-0.2-2.4-0.7-2.4c-2.7-0.2-3.6-2.7-5.4-3.8c-1.3-0.7-2.7-0.9-4-0.2
		c-1.3,0.7-1.4,2.2-1.1,3.3c1.8,4.9-4.3,6.7-4.5,11c0,1.1-3.4,2.7-4.3,5.4c-1.4,4.2-2,4,2.5,4.2c1.8,0.2,3.6-1.1,5.4-0.2
		c0.4-3.1,3.6-3.3,5.2-5.1v-0.4c-1.6-2.7,0.7-4.7,1.1-6.9C581.6,254.4,583.1,251.9,586.8,252.8z M579.6,271.8c0-0.9-0.4-1.6-1.4-1.4
		c-0.7,0.2-1.4,0.4-1.3,1.3c0.2,0.5,0.9,0.9,1.4,1.3C579.4,273.2,579.6,272.5,579.6,271.8z"/>
	<path fill="#388E8E" d="M262.9,329.4c0.4,2.5-1.3,4.2-2.7,5.6c-2.7,2.9-4.7,6.5-6.7,9.9c-1.6,2.7-1.4,5.4,0.5,8.1
		c1.1-1.1,2-2.4,3.8-2c0,0.5,0,1.1,0.2,1.6c2,2.9,5.1,0.4,7.4,1.6c0-0.2,0.2-0.5,0.2-0.7l0,0c1.4,0,3.3,0.4,1.6,2.2
		c-2,2.2-2.4,5.1-3.8,7.4c-1.6,2.7-1.6,2.7,1.4,3.4c0.7,0.2,0.5,1.1,0.7,1.8c-1.4,1.3-2.9,2.7-4.5,4c-1.6,1.3-3.3,0.9-4.3-0.5
		c-4.9-5.8-8.9-12.3-12.3-19c-1.1-2.2,0.5-3.3,1.8-4.5c0.4,0.7,1.1,1.3,1.6,0.5c3.4-5.2,8.3-9.4,10.1-15.5l0,0
		C260.5,333.6,260.7,330.4,262.9,329.4z M252.7,357.1c-0.4,0.5-0.7,0.7-0.7,1.1c0,0.5,0.4,1.1,1.1,0.9c0.2-0.2,0.5-0.7,0.4-1.1
		C253.6,357.8,253.1,357.6,252.7,357.1z M256,360.9c-0.2-0.2-0.4-0.5-0.7-0.7c-0.5-0.2-0.7,0.2-0.5,0.7c0,0.4,0.4,0.7,0.7,0.9
		C255.8,362,256,361.6,256,360.9z"/>
	<path fill="#388E8E" d="M506.9,218.1c1.3,2.2,2.7,4.2,5.2,5.1c1.1,0.4,1.6,1.1,1.4,2.4c-0.4,1.6-1.4,0-1.8,0.2
		c-1.1,0.9-3.1,1.3-2.7,3.3c-1.4-0.5-1.1-1.6-1.4-2.2c-0.9-1.4-1.8-0.7-2.7,0c-0.9,0.7-0.7,1.1,0.4,1.6c2.7,1.3,2,2.9,0.5,5.1
		c-2.4,3.4-4.3,7.1-7.4,9.8c-1.1,1.1-2.4,2.7-0.7,3.8c1.6,1.3,2.2-0.7,2.9-1.8c2.5-3.8,3.4,0.2,5.8,1.3c-3.8,1.3-6.3,4.7-10.5,2.2
		c-0.7-0.4-1.4,0-1.8,0.7c-0.2,0.4,0,0.7,0.2,1.1c0.7,1.1,0,3.3-1.4,3.3c-2.7,0.2-4.2,1.8-6,3.4c-0.5,0.5-1.3,1.4-2.2,0.7
		c-1.6-1.6-2.2-0.2-2.7,0.9c-2.2,4.5-7.6,5.1-10.7,8.5c-0.2,0.2-2.9,1.3-1.4-1.4c0.4-0.9-0.4-2.4-0.5-3.6c0-0.2,0-0.4,0-0.5
		c2.4,0.2,4-0.4,5.8-2.2c2.2-2,2.2-8.3,7.8-4.9c0,0,0.4-0.4,0.5-0.5c2.4-2.4,6.5-4,2-9c5.4,2,8.1,0.4,9.8-5.1
		c0.4-0.4,0.5-0.5,0.9-0.9c1.1,0,1.6-0.5,1.6-1.6c0-0.2,0.2-0.2,0.2-0.4c0,0.2-0.2,0.2-0.2,0.4c-0.5-0.2-2.4-0.2-1.8-0.7
		c2.4-1.8,2.7-4.9,4.7-6.9c2.2-2.2,2.5-5.2,4.3-7.8c0.7-1.1-2.2-3.1,0.2-4.7C505.9,217.5,506.6,217.5,506.9,218.1z"/>
	<path fill="#388E8E" d="M411.7,277.6c-0.2-0.9,0.2-2.2-0.4-2.7c-2.7-2.7-0.2-3.8,1.4-5.2c2.5-2.2,2,0.5,2.7,1.4
		c0.5,0.9,1.6,0.7,2-0.2c1.1-1.6,2-3.4,0-4.9c-2.9-2,0.4-2.7,0.7-3.6c0.7-1.4,1.8-1.4,3.3-0.4c1.1,0.9,0.9,1.1,0.4,2
		c-0.5,0.9-1.8,1.4-1.3,3.1c4.2-1.6,5.8-5.4,7.8-8.5c5.2-8.7,8.5-17.9,6-28.4c-0.9-3.8-3.8-5.2-6.9-5.6c-1.3-0.2-4.7,0.5-5.1,3.8
		c-4.7-3.3-9.6-5.1-15.2-3.3c-1.1,0.4-2.7,0.7-3.1-0.9c-0.4-1.6,1.3-1.4,2.2-1.8c5.8-3.4,11.8-3.4,18.1-1.8
		c9.2,2.5,13.2,7.6,13,17.2c-0.4,14.6-7.6,25.9-18.4,34.9C416.5,274.7,414.6,276.8,411.7,277.6z M421.4,224.9
		c-1.1-0.4-1.8-1.8-3.3-0.9C419.1,224.9,420,225.9,421.4,224.9z"/>
	<path fill="#388E8E" d="M303.4,332.2c-0.5-1.3,0.2-2.2,1.1-2.9c3.3-2.4,4-6.9,7.8-8.7c0.2-0.2,0.4-0.4,0.5-0.7
		c1.3-8.3,9.6-11.6,13.6-17.9c1.4-2.2,3.4-3.8,5.1-6c1.3-1.6,2.4-2.9,4.3-3.6c1.6-0.7,2.9-1.8,2.9-4.3c0-3.3,3.6-4.9,5.4-7.4
		c2.2-2.9,3.3-6.5,6-9.2c2-2,2.5-5.4,6.5-5.1c1.3,0.2,0.9-1.3,0.2-2.2c-1.6-2.4-0.7-3.3,2-3.3c2.4,0.2,3.4-1.3,1.8-2.7
		c-3.1-2.5,0.4-3.8,0.9-5.4c0.7-2.5,2.5,0,3.8-0.4c-0.5,6.3-4.2,11.4-7.8,16.3c-6.7,8.9-13.9,17.5-20.8,26.4
		c-9.8,12.3-20.4,23.9-31.1,35.4C304.6,331.3,303.9,331.8,303.4,332.2z"/>
	<path fill="#388E8E" d="M811.2,265.1c-6.9,0.4-11.6,5.4-17.5,8c-3.8,1.6-7.4,3.4-11.4,3.6c-1.1,0-3.6,0.2-3.1-0.7
		c0.9-1.8,0-4.5,2.5-5.4c7.1-2.7,14.5-4.7,21.2-8.1c9.6-4.9,19.3-10.1,28.4-16.1c1.1-0.7,2-1.3,3.4-1.3l0,0c-0.2,2-2.2,2.4-3.3,3.6
		c-3.8,4.5-8.3,8.1-13,11.6c-1.6,1.3-5.2,0.2-4.7,4C812.7,264.2,812.3,265.8,811.2,265.1z"/>
	<path fill="#388E8E" d="M342.4,233.4c-7.8,3.1-14.1,8.5-20.6,13.6c-4.5,3.6-8.9,7.4-11.9,12.5c-0.7,1.3-2.5,2.2,0.4,3.6
		c2.5,1.1,0.7,3.1-0.7,3.6c-3.3,1.3-6.1-0.5-9-1.8c-0.9-0.4,0.2-2.2,0.7-3.3c1.1-2.4,3.8-4.2,3.1-7.4l0,0c0.5,0,1.1-0.2,0.2-0.7
		c2.4-1.8,3.1-5.2,5.8-6.7c0.2,0.2,0.4,0.4,0.5,0.5c0-0.2,0-0.5,0-0.7h0.2v0.2c0.4-0.4,0.5-0.5,0.9-0.9l-0.2-0.2
		c2,0.2,3.8,0,4.7-2.4c0.4-1.1,1.1-1.3,2.4-1.1c4.7,1.3,7.1-0.7,7.6-5.6c0.2-1.4,0.2-3.3,2-3.1c4,0.2,6.3-3.1,9.8-3.6
		C339.9,230.7,341.2,232,342.4,233.4z"/>
	<path fill="#388E8E" d="M608,263.5c0.5-2.4,4.5-3.1,3.1-6.5c-0.9-2-1.3-3.4-3.3-0.9c-0.5,0.7-1.4,2.5-3.3,1.4
		c3.8-5.1,8.7-9.2,13.9-12.8c0.2,0.2,0.4,0.4,0.5,0.5c-0.5,1.6-1.1,3.3-1.6,5.1c-2.4-0.7-3.4,0.9-4.2,2.7c-0.7,1.4,0.4,2.2,1.6,2.4
		c0,0.7-1.4,1.8,0.2,2.4c0.7,0.2,1.6,0,1.6-0.9c0.2-1.4-0.9-1.3-2-1.4c-0.9-2.5,2.4-3.1,2.5-5.1c2-0.2,4-1.8,6.3,0.2
		c1.3,1.1,2.2-1.1,3.4-1.6c0.9-0.4,1.4-1.1,0.5-2c-3.1-3.4,0.2-4,2.4-4.9c0.2,0.4-0.4,1.1,0.5,0.9c-0.2-0.4-0.4-0.5-0.5-0.9
		c0.7-1.4,3.4-0.2,3.3-2.5l0,0c2.9,0.7,6,0.5,7.1-2.5c0.5-1.4,1.4-2.9,1.4-4.5c2.7,1.8,5.6,3.6,8.1,5.6c3.1,2.4,3.3,4.9,0.9,7.4
		c0-1.8,0.4-3.8-0.9-5.1c-1.1-1.1-2.4-3.3-4.3-2c-1.8,1.3-0.9,2.9,0.5,4.2c-1.6,0.9-4-2.2-4.3,1.4c-6.9,3.1-14.1,5.4-19.7,10.8
		c-4,3.8-7.8,7.6-11.6,11.4c-0.2-0.4-0.4-0.5-0.5-0.9C609.6,264,609.1,263.5,608,263.5L608,263.5z"/>
	<path fill="#388E8E" d="M831.3,235.8c-16.8-1.4-30.6,5.4-42.7,16.3c-0.9,0.9-2,1.6-2.9,2.4c0.7-2.4,1.4-4.7,2.2-7.1
		c0.2,0,0.2,0.2,0.4,0.2c-0.2,0-0.2-0.2-0.4-0.2c0-0.5,0-1.1,0-1.6c0.5,0,1.1,0,1.3-0.7c0-0.2-0.4-0.5-0.5-0.5
		c-0.7,0.2-0.7,0.7-0.7,1.3c-1.8-1.1-3.1,2.7-5.1,0.7c7.6-6.1,16.1-10.7,24.9-14.8c3.1-1.4,6.3-2.9,9.4-4.3
		c-0.4,1.3,0.9,3.3-2.4,3.1c-1.4-0.2-4.7,0.5-5.2,3.8c3.3,1.1,6.7-4.3,9.8,0.2c0.2,0.2,0.7-1.3,1.1-1.4c2-1.3,4.2-3.1,6.5-1.6
		c0.7,0.4,0.2,2.9,2.4,2.9C830.4,234.2,831.1,234.7,831.3,235.8z M800,240.1c0.2-1.1,1.6-1.8,0.5-2.9c-0.2-0.2-0.5,0-0.7,0
		C798.4,238.1,799.5,239.1,800,240.1z"/>
	<path fill="#388E8E" d="M497.7,237.6c0,1.1-0.5,1.6-1.6,1.6l0,0c-1.6-1.4-3.4-0.9-5.2-0.4c-0.2,0-0.2,0.9,0,1.1
		c1.4,1.8,3.1-0.4,4.5,0.2l0,0c-1.6,5.4-4.3,7.1-9.8,5.1c4.5,4.9,0.4,6.7-2,9c-0.2,0.2-0.5,0.5-0.5,0.5c-5.6-3.3-5.6,2.9-7.8,4.9
		c-1.8,1.8-3.6,2.4-5.8,2.2c1.4-3.8,4.7-6.3,7.2-9.4c7.6-9,15.9-17.7,22.4-27.8c0.9-1.3,1.8-2.5,1.8-4.2c0-3.3,1.4-4.5,4.5-2.9
		c-2.4,1.6,0.5,3.6-0.2,4.7c-1.8,2.4-2.2,5.6-4.3,7.8c-2,2-2.4,5.1-4.7,6.9C495.4,237.4,497.2,237.2,497.7,237.6L497.7,237.6z
		 M483.1,250.1c0.2-0.2,0.4-0.2,0.7-0.4c-0.2-0.2-0.4-0.4-0.5-0.4c-0.2,0-0.4,0.2-0.7,0.4C482.7,249.7,482.9,249.9,483.1,250.1z"/>
	<path fill="#388E8E" d="M638.9,279.5c1.3-3.1,2.4-6.3,3.6-9.4c0.5-1.3,0.9-3.4,2.4-2.7c1.4,0.7,2.2,2.9,1.3,4.7
		c-0.5,1.3-2.2,2.4-0.7,3.4s3.1-0.2,4-1.3c3.4-4.7,9.4-5.2,13.6-9c2.5-2.4,5.8-3.8,7.8-6.7c1.1,0.2,2.4-0.5,2.9,0.7
		c0.7,1.4-0.5,2.2-1.3,3.1c-0.9,0.9-1.8,1.6-1.3,3.1h-0.2c-2.2-0.2-4.2,0-5.2,2.2c-2,4.5-5.4,8-9.4,10.7c-4.2,2.7-7.6,8.1-13.9,5.4
		l0,0c0-0.7-0.2-1.4-1.1-1.4v0.2c0-0.2,0-0.5,0-0.7c-0.2,0.2-0.4,0.4-0.5,0.4C639.6,281.5,639.1,280.5,638.9,279.5z"/>
	<path fill="#388E8E" d="M747,275.2c-0.5,2.7-2.9,4.2-4.9,5.8c-0.2-0.2-0.2-0.5-0.4-0.7c0.4-1.4,2.5-1.6,1.8-3.8
		c-0.5,1.8-4.9,1.1-2.5,4.7c0.2,0.2,0.4,0.4,0.7,0.4c-1.3,1.3-2.5,2.5-3.8,3.8c-0.4-1.3-0.7-2.4-0.9-3.6c-0.2-1.6-0.4-3.3-2.4-3.8
		c-2.2-0.7-2.5,1.6-3.8,2.4c-1.3-2.7-0.9-5.2,0.9-7.6c2.4-3.3,4.9-6.3,8.1-8.7c1.4,2.5,1.1,4.2-2,4.7c-1.1,0.2-2.2,1.1-2.2,2.2
		c0,1.3,1.4,0.9,2.4,1.1c0.9,0.2,1.8,0,2,1.1c0.7,3.6,2.2,1.4,3.4,0.5c1.3-0.9,2.2-2,3.3-3.1c4.3-4.5,7.2-10.3,12.7-13.9
		c0.7-0.5,0.9-1.4,0.4-2.2c-1.8-3.1-0.2-5.6,1.4-8.1c1.3,1.6,1.4,3.6,1.3,5.6C761.1,261.8,756.2,270,747,275.2
		c-0.4-0.9-0.5-2-1.8-1.4c-0.2,0-0.5,0.4-0.4,0.5C745,275.6,746.1,275,747,275.2z"/>
	<path fill="#388E8E" d="M403.3,231.6c-0.5,0.4-0.9,0.9-0.5,1.4c2.9,2.9,1.6,5.4-0.4,8c-2,2.2-4,4.3-7.4,2.7
		c-0.9-0.4-1.6,0.2-2.2,0.9c-1.1,2.2-2.5,4.5-3.1,6.7c-1.4,5.4-4.9,9.6-6.7,14.6c-0.2,0.7-1.1,1.1-1.6,1.1c-2.2-0.2-4.5-1.8-6.3,0.9
		c-0.2,0.2-2-0.2-1.3-1.3c1.3-1.8,1.1-4.5,2.5-6c4-4.3,6.3-9.8,9-15c0.2-0.2-0.2-0.5-0.2-0.7h0.2c2.7,0.5,3.6-2,5.2-3.3
		c2.2-1.6,4-3.6,6-5.4c1.3,1.8-1.8,2.7-0.2,3.6c2.7,1.4,4-1.6,6.5-2.5c-5.2,0.2-4.2-2.5-2.9-5.2c0.4-0.9,1.3-1.4,1.8-2.2
		C402.6,230.2,403.2,230.9,403.3,231.6z"/>
	<path fill="#388E8E" d="M771.1,337.8c0.7-2.9,2.4-4.7,5.6-5.8c3.8-1.3,4.2-5.8,6.5-8.7c0.5-0.9,0.5-2,2-2.2
		c2.9-0.4,2.2-3.6,4.2-5.4c4.3-3.8,7.6-8.9,11.2-13.4c-0.9-1.4-3.1,1.4-3.4-0.9c-0.2-2,2.4-1.6,3.3-2.5c1.4-1.3,4.7,1.4,4.9-2.2l0,0
		c4.3-0.9,8.7-2,14.1-3.1c-2.9-1.3-5.1,0.9-6.5-1.1c6-1.6,12.3-2.4,18.6-2.9c0,2.7-2,2.7-3.6,3.3c-6.3,2.4-13,3.4-19.5,6
		c-4.5,1.8-7.1,5.1-9.6,8.7c-9,13-19.2,24.9-30.2,36C767.3,340.8,768.2,339,771.1,337.8c0,0.2,0.2,0.4,0.4,0.4
		C771.3,338.1,771.3,337.9,771.1,337.8z"/>
	<path fill="#388E8E" d="M138.5,186.6c0,1.8,0.2,2.7,2.4,3.6c4.3,1.6,6.9,6.7,5.8,10.3c-0.4,1.3-1.1,2.7-2.7,2.7
		c-1.3,0-2.5-0.5-2.7-2c-0.4-1.6,0.2-2.7,2-2.9c1.1-0.2,1.4-1.1,0.9-1.8c-0.9-1.4-1.3-3.6-4.2-2.9c1.4,1.6,1.3,2.9-0.2,4.5
		c-3.1,3.8-7.4,6.3-10.3,10.3c-1.8,2.5-4.5,1.4-8.3,1.4c3.3-2.2,5.4-3.6,6.1-6.5c0.5-1.8,2.7-2.7-0.7-4c-1.4-0.5,1.1-5.6,3.8-6.9
		c3.8-1.8,5.2-4.5,4.7-8.7c3.3-2,3.4,0.9,4.5,2.7C139,186.6,138.7,186.6,138.5,186.6s-0.2-0.2-0.4-0.2
		C138.1,186.4,138.3,186.4,138.5,186.6z M134,194.2c0-0.2-0.2-0.2-0.2-0.4c0,0.2-0.2,0.2-0.2,0.4c0,0.2,0.2,0.2,0.2,0.4
		C133.8,194.4,134,194.2,134,194.2z"/>
	<path fill="#388E8E" d="M334.8,267.8c-0.4-2.5,1.6-3.4,3.1-4.5c2.9-2,5.1-3.8,5.1-8.1c0-1.8,3.8-4,6.9-4c1.1,0,2,0.9,2.7-0.7
		c0.4-1.3,1.4-1.3,2.2-0.2c0.7,0.9,0.5,1.4-0.5,2c-3.1,1.3-5.2,5.4-5.1,7.1c0.4,4.2-3.3,5.2-4.7,7.8c-2.4,4.5-7.6,7.6-7.6,13.7
		c0,2.4-2.2-0.5-3.1,0.9c-1.3,2-3.4,3.3-4,5.8c-0.2,0.9-0.5,1.6-1.4,2.2c-2,1.1-2,1.3-0.4,3.1c0.7,0.9-0.2,1.1-0.4,1.6
		c-0.5,1.4-1.4,2.7-3.1,3.1c-0.2,0-0.7-0.7-0.9-1.3c-0.4-0.5,1.1-1.3-0.2-1.4c-0.7-0.2-1.4,0.7-1.4,1.3c1.1,4-2.4,3.1-4.3,4.2
		c1.3-2.9,0.7-4.5-2.2-3.6c-2.2,0.7-4.7,0-6.7,2c-0.5,0.7-1.8,0.4-2.5-0.5c3.4-2.2,7.4-2.9,11.4-3.8c3.4-0.9,6.1-2.4,8.5-5.2
		c7.1-9,13.7-18.4,19.7-28.2c0.4-0.4,0.7-0.7,0.2-1.3c-0.2-0.2-0.7,0.2-0.9,0.2C341.9,262.2,338.3,264.9,334.8,267.8z"/>
	<path fill="#388E8E" d="M164.5,236.7c-4.2-1.1-4.3,2.4-5.4,4.7c1.3,0.4,3.3-1.6,3.6,1.3c-7.6,1.1-14.3,4.5-20.1,9.4
		c-6.5,5.6-12.3,12.1-17.7,18.6c0-3.3-0.5-6.1,3.3-8.7c2.7-1.8,3.6-6.1,5.4-9.4l0,0c2.4,0.2,3.4-3.8,6.3-1.8
		c0.5,0.4,0.7-0.5,0.5-1.1c-0.5-1.8,0.7-2.4,2-2.5c2.4-0.4,3.1-1.6,4.2-3.8c1.1-2.4,4.5-2.4,6.9-3.8c1.8-1.1,3.1-3.1,5.2-3.8
		c1.4-0.5,0.5-1.8-0.2-2.7c-0.9-0.9-1.8-1.4-2.7-0.2c-0.9,1.1-0.9,3.1-2.9,3.3l-0.2-0.2c0.4-4.2-2.5-1.1-3.8-1.6
		c1.1-1.8,3.1-2.7,4.9-3.6c2.2-1.1,4-1.1,5.4,1.1C160.4,234,163.4,234.2,164.5,236.7z"/>
	<path fill="#388E8E" d="M230.3,231.8c0.2,1.1-2.9,2.2,0.2,3.4c2.4,1.1-0.2,4.3,2,5.6c-2.5,2.2,1.1,1.6,1.1,2.9
		c-1.1,0.7-2.2,1.4-3.3,2.2l0,0c0-1.1,0.2-2.5-1.1-2.9c-1.8-0.5-0.4,1.3-1.3,1.8c-6.1,3.4-8.3,10.5-13.4,15.2
		c-2.4,2.2-5.4,3.8-6.1,7.4c-0.4,0.2-0.7,0.4-1.1,0.5c0,0.2,0.2,0.4,0.2,0.4c0.4-0.2,0.7-0.4,0.9-0.5c2.2,0,4,0,5.1-2.5
		c1.3-3.1,4.3-1.1,6.7-1.4c-5.6,6.1-13.6,8.3-20.6,12.1c-0.7-2,0.4-3.4,1.8-4.7c8.9-8.3,16.3-17.7,23.7-27.3c1.1-1.3,2-2.7,2.2-4.7
		c-3.8,0.4-6.5,2.7-9.4,4c0.4-2.2,1.4-4.2,3.6-4.5c3.3-0.5,2.7-2.5,2-4.5C225.6,232.5,228,232.2,230.3,231.8z"/>
	<path fill="#388E8E" d="M681.2,272.1c1.4-2.2,2.9-3.3,6-2.4c2.2,0.5,5.1-1.3,7.2-2.7c5.8-3.8,11.8-7.4,17.5-11.2
		c0.5-0.4,1.1-0.5,1.4-0.2c0.7,0.5,0.4,1.3,0,1.8c-0.5,0.7-1.3,1.4-2,2.2c-2.2,2.2-4.9,3.6-6.3,6.7c-0.9,2-4.9,2.4-6,4.9
		c-1.3,3.6-4.3,5.2-7.1,7.2c-3.4,2.7-5.8,0.9-8-1.8c-0.9-1.3-1.3-3.1-2.9-4C681.2,272.5,681.2,272.3,681.2,272.1z"/>
	<path fill="#388E8E" d="M885.5,287.7c0-1.4,0.2-2.4,2-2.5c7.1-0.2,10.7-6,15.7-9.6c0.9-0.5-0.4-1.4-0.4-1.6c0.9-1.3,0-4.5,3.4-2.9
		c2.7,1.3,4.2-2.5,6.7-2c-12.3,11.4-25.7,21.3-41.4,28c-5.6,2.4-10.8,4.5-17,4.5c-4,0-7.2-1.6-9.6-4.9c1.4-0.2,2.2,0.7,3.4,1.3
		c0.9,0.5,2.2,1.6,3.4,0.4c1.8-2,3.4-3.8,3.8,0.9c0,0.5,1.1,0.7,1.8,0.4c1.8-0.9,3.6-1.8,6-0.9c0.5,0.2,2.4-0.2,2.7-1.4
		c0.7-2,2.2-2.7,4.2-3.1c1.1-0.2,2-0.4,1.6-1.8c-0.5-2,1.1-1.8,2-1.4c2,0.9,3.8-0.5,5.8,0c0.2,0,3.8,0.5,1.3-2.2
		c-0.7-0.7,0.7-1.1,1.1-1.1C883,287.9,884.2,287.9,885.5,287.7c0,0.2,0.2,0.2,0.4,0.4C885.9,287.9,885.7,287.9,885.5,287.7z"/>
	<path fill="#388E8E" d="M760.9,245.9c-1.6,2.5-3.1,5.1-1.4,8.1c0.5,0.9,0.4,1.6-0.4,2.2c-5.2,3.6-8.3,9.4-12.7,13.9
		c-1.1,1.1-2,2.2-3.3,3.1c-1.4,0.9-2.7,3.3-3.4-0.5c-0.2-1.1-1.3-0.9-2-1.1c-0.9-0.2-2.4,0.4-2.4-1.1c0-1.1,1.1-2,2.2-2.2
		c3.1-0.5,3.4-2.2,2-4.7h0.2c2.5,0.9,4.2,0,5.8-2c3.3-3.8,8.7-6.1,8.1-12.7c-0.2-2.5,2.2,0,2.9-0.9c0-1.1-0.7-1.4-1.3-2.2
		c-0.7-0.5-2-0.9-1.1-2.2c1.1-1.3,1.4-0.2,2,0.7c0.7,0.9,0.9,0.7,1.6-1.6C759.1,243.8,760.6,244.3,760.9,245.9z"/>
	<path fill="#388E8E" d="M815.9,271.6c-0.7,4.9-4.7,8-7.1,11.8c-2.2,3.3-5.6,6-7.4,9.4c-3.4,6.1-8.9,8.1-15.2,9.2
		c-2.7,0.5-5.4,1.6-7.6,3.1c-2.9,1.8-6.1,2.9-9.4,3.6c-0.7,0.2-1.4,0.4-2,0.7c-6.1,4.9-14.3,6.1-20.4,11.4
		c-2.5,2.2-6.1,5.1-10.5,3.8c11.6-8,24-14.1,37.1-19.3c0.9-0.4,1.8-0.5,2.7-1.1c7.1-3.8,16.3-3.1,22.1-9.8
		c5.2-6.1,9.8-12.8,14.5-19.2C813.6,273.9,814.3,272.3,815.9,271.6z"/>
	<path fill="#388E8E" d="M84.1,268.5c1.4-3.4,2.5-6.9,5.8-9.8c4.3-4,9.8-7.6,11.8-13.7c0.4-0.9,0.7-1.6,1.6-1.4
		c1.4,0.4,1.8,0.4,1.6-1.4c-0.2-1.6,0.4-3.3,2.7-2.2c0.2,0.2,1.1,0,1.1-0.2c0.9-5.8,7.6-5.6,9.9-9.6c1.8-3.1,3.8-6.1,6-9
		c1.8-2.4,3.6-3.3,6.1-1.3c-8.1,10.5-18.4,19.2-27.7,28.7C96.5,255.1,90.9,262.4,84.1,268.5z"/>
	<path fill="#388E8E" d="M554.1,255.9c-1.3-0.5-2.5-2.2-3.6,0c-1.4,2.5,2.2,1.1,2,2.5c-0.7,2.4-4,1.6-4.9,3.3
		c-1.4,2.9-3.6,2.4-5.8,2.4c1.1-6.3,8.1-9,8.7-15.5c0.2-2,2.7-1.6,3.4-3.8c0.7-2.2,3.3-3.8,1.8-6.7c-0.2-0.2,0-0.5,0.2-0.7
		c1.6-2.4,1.6-2.4,0-4.9c-0.5-0.7,0-1.3,0.5-1.6c2.7,0.7,3.3,3.1,3.8,5.4c1.1,6-0.7,11.2-3.4,16.3c-0.5,1.1-2.2,1.8-1.4,3.4l0,0
		C555,255.5,554.7,255.5,554.1,255.9z"/>
	<path fill="#388E8E" d="M757.7,243.2c-0.7,2.4-0.9,2.5-1.6,1.6c-0.7-0.9-1.1-1.8-2-0.7c-0.9,1.3,0.4,1.6,1.1,2.2
		c0.5,0.5,1.4,1.1,1.3,2.2c-0.7,0.9-3.1-1.6-2.9,0.9c0.5,6.3-4.9,8.7-8.1,12.7c-1.6,1.8-3.3,2.9-5.8,2c3.1-3.6,6.1-7.2,9-11
		c1.8-2.2,4.3-4.9,3.1-7.6c-1.4-2.7-5.1-2.7-8.1-2.9c-0.7,0-1.4,0-2-0.2c-0.7-0.7-1.3-0.7-1.6,0.4l0,0c-0.7-0.4-0.9-0.9-0.9-1.6
		C745.8,239.6,752.1,238.7,757.7,243.2z"/>
	<path fill="#388E8E" d="M870.1,219.7c1.4,0.5,2.7,0.2,3.6-1.1c1.3-1.8,3.4-2,5.6-2.2c-10.5,10.8-20.1,22.2-22.4,38
		c-1.4-0.7,0.2-3.3-2.2-3.4c-0.4-4.5,0.7-8.7,2.7-12.7c1.1,0,2-0.7,2.4-1.6c1.6-4,4.2-7.2,7.1-10.5
		C868.3,224.6,871.6,223.1,870.1,219.7L870.1,219.7z"/>
	<path fill="#388E8E" d="M824.6,274.5c-0.7-4.3,2.9-9.4,6.9-10.7c2.2-0.7,3.3-2.7,3.4-4.7c0.4-3.3,4.2-8.9,7.2-9.6
		c0.5-0.2,0.9,0.4,0.9-0.9c0-5.1,2.4-6.5,6.5-4.3C842.3,255.1,833.3,264.7,824.6,274.5z"/>
	<path fill="#388E8E" d="M787.7,247.5c-0.7,2.4-1.4,4.7-2.2,7.1l0,0c-0.2,0-0.5,0-0.7,0c0.2,0.2,0.2,0.4,0.4,0.5
		c-0.7,1.1-1.3,2.2-2.4,2.7c-1.6-4.3-1.6-4.3-4.7-2.5c-0.5,0.4-1.1,0.4-0.7,1.4c5.1-0.5,2.4,2.5,2.2,4.7l0,0c-1.3-0.2-2,0.4-1.8,1.6
		l0,0c-1.1,0.5-2.4,1.1-3.4,1.6l-0.2-0.2c-2-1.1,0.2-2.2,0-3.3l0,0c0.2,0,0.4-0.2,0.4-0.2c0-0.2-0.2-0.4-0.4-0.5l0,0
		c-1.8-1.4-3.8-2.7,0.4-4c1.3-0.4,2-2.5,2-4.3c1.6-2,3.4-4.2,6-5.2c2,2,3.3-1.6,5.1-0.7l0,0C787.7,246.5,787.7,247,787.7,247.5
		L787.7,247.5z"/>
	<path fill="#388E8E" d="M542,271.8c0.2,0.9-0.5,2.7,0.9,2.7c1.3,0,1.8-1.6,2.5-2.7c2.9-4,6.1-7.6,9.4-11.4c0.2-0.4,1.1-0.2,1.6-0.2
		c-5.4,7.4-10.7,15-17.5,21.2c-2,1.8-4.5,4.7-7.8,1.4c0.5-0.2,1.4,0,1.4-0.9c0-0.2-0.4-0.4-0.4-0.4c-0.9,0-0.7,0.9-0.9,1.4
		c-1.1,0-1.8-0.7-2.5-1.6c1.6-1.6,3.3-4.3,5.6-0.7c0.5,0.9,1.8,0.7,2.7,0.4c0.9-0.4,0.4-1.1,0.2-1.8C536.4,275,538.6,273,542,271.8
		L542,271.8z"/>
	<path fill="#388E8E" d="M143.9,264.9c0,0.4,0,1.1-0.2,1.1c-3.3,1.8-2.5,4.2-1.1,6.7l0,0c-1.4-0.2-2.7,0.2-3.4,1.6
		c-0.4,0.2-0.7,0.2-1.1,0.4c0,0.2,0.2,0.4,0.2,0.4c0.4-0.2,0.5-0.4,0.9-0.5c0.7,0,1.6,0,2.4-0.2c0.2,0.2,0.4,0.4,0.5,0.5
		c-7.4,5.2-14.1,11.6-23,14.3c0.2-0.5,0.4-1.8,0.5-1.8c3.1-0.7,6.3-0.9,4.9-5.8c-0.2-0.7,2.7-3.3,5.2-2.5c2.2,0.5,4.2,1.3,3.8-2.5
		c-0.4-2.5,3.1-2,4-3.6c0.4-0.7,2.2-0.5,1.8-1.8c-0.4-1.1-1.8-0.5-2.5-0.9C138.8,267.6,141.4,266.2,143.9,264.9z"/>
	<path fill="#388E8E" d="M831.3,235.8c0-1.3-0.7-1.6-2-1.6c-2.2,0-1.6-2.5-2.4-2.9c-2.4-1.3-4.5,0.5-6.5,1.6
		c-0.4,0.2-0.9,1.6-1.1,1.4c-3.1-4.5-6.5,0.9-9.8-0.2c0.4-3.3,3.6-3.8,5.2-3.8c3.3,0.2,2-1.8,2.4-3.1c0.4-0.2,0.7-0.4,1.1,0
		c3.4,1.3,6.5,1.1,8.9-2.2c2.5,2.4,4.9,5.1,6.3,8.1C834.2,235.3,834.2,237.1,831.3,235.8z"/>
	<path fill="#388E8E" d="M159.8,278.6c3.6,0.5,6.7-1.3,9.8-2.5c1.1-0.4,2-1.1,3.1-0.7s0.5,2.9,2.5,1.6c2.5-1.6,5.1-3.3,7.6-5.1
		c0.5-0.4,0.7-0.9,0.2-1.4c-0.7-0.5-1.3-0.4-1.8,0.2c-0.7,0.7-1.4,1.1-2,0.2c-0.9-1.4,0.5-1.4,1.3-1.8c0.7-0.4,0.9-1.4,2-1.1
		c2.4,0.7,4.7,0.2,7.1-0.2c-5.4,5.8-11.9,10.1-19.3,13.2C166.3,282.8,162.9,281.5,159.8,278.6z"/>
	<path fill="#388E8E" d="M563,277.7c1.6-2.7,7.1-5.4,9.8-5.2c3.8,0.2,4.7,2.4,4.9,5.4h-0.2c-1.4,0.4-2.9,0.7-4.5,1.1
		c1.1,0.5,2,1.1,2,2.4l-0.2-0.2l0.2,0.2c-1.4-0.2-2.4,0.2-2.5,1.8l0,0c-1.1-0.2-2-0.5-2.7,0.7C567.5,281.5,564.1,280.8,563,277.7z"
		/>
	<path fill="#388E8E" d="M166.9,273.6c-1.1,0.9-2.5,2.4-3.8,0.5c-1.3-2-0.2-4.3,1.4-5.1c3.8-1.8,5.6-6,5.6-8.5c0-2.9,1.4-5.2,1.6-8
		c0-2.7,2.4-3.8,4-3.6c2.7,0.4,3.6-1.3,5.1-2.7c2.4,0.7,0.9,1.8,0.2,2.5c-6.1,6-9.8,13.4-13.6,20.8
		C166.9,270.9,165.6,272.1,166.9,273.6z"/>
	<path fill="#388E8E" d="M300.8,275.9c3.4-0.2,5.1,4.2,8.9,3.4c0.2,0.2,0.4,0.2,0.4,0.4c-0.2-0.2-0.2-0.2-0.4-0.4
		c1.4-0.9,1.6-2.4,2.2-3.6c1.1-0.2,1.1,0.5,1.1,1.1c-0.2,1.1-0.5,2.4,1.1,2.5c0.9,0.2,1.6-0.4,2-1.1c0.5-0.9,0.5-2.2-0.4-2.5
		c-1.3-0.7-2.4-1.3-0.7-2.5c1.4-1.1,4.2-2.4,5.1-1.1c2,2.9,3.3,2.7,5.4,0.4c0.5-0.5,1.8-0.2,2.7-0.4c-4.2,4.7-9.8,7.6-15.7,9.6
		C307.3,283.2,303.7,279.9,300.8,275.9z"/>
	<path fill="#388E8E" d="M288.9,343.7c-1.8-0.4-2.2-2.2-0.9-2.4c2.9-0.7,2.5-5.8,6.3-4.5c0.5,0.2,0.5,2,0.7,3.1
		c-2,4.5-5.8,7.2-9.2,10.3c-2.9,2.7-6.1,5.4-9.2,8c-0.9-3.8,1.8-5.1,4.3-6.1c0-1.8-2.9-1.6-2-2.9c1.1-1.8,2.9-3.4,4.7-4.2
		c1.4-0.7,0.7,2.2,2.2,2.7C286.6,346.3,288.5,345.7,288.9,343.7c0.7,0,1.3,0,1.3-1.1c0-0.2-0.2-0.2-0.2-0.2
		C288.9,342.3,288.9,343,288.9,343.7z M281.5,349.7c0.5,0.4,0.9,0.5,1.1,0.5c0.5,0,1.1-0.4,0.9-1.1c0-0.2-0.7-0.4-1.1-0.4
		C282,349,281.9,349.3,281.5,349.7z"/>
	<path fill="#388E8E" d="M195.3,262.7c1.6-4.9,1.3-6-2-5.4c-0.7,0.2-1.6,0.2-2.4,0.4c4.9-3.8,9.2-8.5,15-11
		c-0.5,1.8-2.2,2.9-3.6,3.8c-0.9,0.5-1.6,1.4-1.1,2.4c0.9,1.3,1.6-0.2,2.4-0.5c2.2-1.3,3.6-4,6.7-3.6
		C205.4,253.2,200.3,258,195.3,262.7z"/>
	<path fill="#388E8E" d="M210.3,248.5c-3.1-0.4-4.3,2.5-6.7,3.6c-0.7,0.4-1.4,1.8-2.4,0.5c-0.7-0.9,0.2-1.8,1.1-2.4
		c1.6-0.9,3.1-2,3.6-3.8c5.2-5.1,11-9.2,17.5-12.5c0.7,2.2,1.3,4-2,4.5c-2.2,0.4-3.3,2.4-3.6,4.5c-0.5,0.4-1.3,0.7-1.8,1.1
		c-2-1.6-3.1,0.9-4.7,1.1C209,245.6,209.5,247,210.3,248.5L210.3,248.5z"/>
	<path fill="#388E8E" d="M379.8,286.1c1.3-0.5,2.4-1.3,3.8-0.2c2.5,1.8,5.2,1.1,8,0.7c1.6-0.2,2.9-1.1,2.4-3.1
		c-0.4-1.3-1.4-2.5,0.7-3.4c1.6-0.5,3.4-1.4,5.1,0.2c2,2,3.4,2.4,3.4-1.3c0-1.1,1.3-1.8,2.2-1.1c1.8,1.1,3.3-0.2,4.7-0.2
		c-2.7,4.5-7.6,5.8-11.8,8c0.5-1.6,0.7-3.1-1.3-4.7c-0.2,2-0.4,3.6-0.4,5.2C391.1,288.9,385.4,290.6,379.8,286.1z"/>
	<path fill="#388E8E" d="M104,272.5c-0.2,2.7-2.5,3.1-4.2,4.2c-8.5,5.1-17,10.1-25.5,15.4c-0.9,0.5-1.6,1.3-2.5,0.4
		c-1.3-1.4-0.2-2.2,0.5-2.9c9.2-4,17.4-9.6,26.2-14.5C100.3,274.1,102,272.9,104,272.5z"/>
	<path fill="#388E8E" d="M493,273.8c1.1-3.1-0.4-7.8,5.4-7.6c1.1,0,1.1-0.7,0.9-1.4c-0.5-3.4,2.2-4.7,4.5-5.1
		c4.3-0.5,7.4-2.5,10.5-5.2c0.4-0.4,1.1-0.2,1.6-0.4c-1.3,2.4-3.6,3.8-5.8,5.2C504,263.6,499.3,269.6,493,273.8z"/>
	<path fill="#388E8E" d="M338.3,229.8c-3.4,0.5-6,4-9.8,3.6c-1.8-0.2-1.8,1.6-2,3.1c-0.4,4.9-2.9,6.7-7.6,5.6c-1.3-0.4-2,0-2.4,1.1
		c-0.9,2.4-2.7,2.5-4.7,2.4c0.7-2.4,2.9-3.3,4.5-4.5c3.3-2.9,6.7-5.4,9.9-8.3C329.9,229.8,333.7,228.6,338.3,229.8z M322,239.8
		c-0.2-0.2-0.5-0.4-0.7-0.2c-0.2,0-0.2,0.4-0.4,0.7c0.2,0.2,0.5,0.4,0.7,0.2C321.8,240.5,321.8,240.1,322,239.8z"/>
	<path fill="#388E8E" d="M528.5,262.4c-0.2,1.3-0.2,2.9-0.7,4c-0.7,1.6-1.3,2.5,0.9,3.3c2,0.5,2.7,0.4,2-1.8
		c-0.2-0.7,0.5-0.9,1.1-0.9c1.3,0.2,1.4,1.4,2.2,2.4c0.7,0.9,0.5,1.6-0.4,2.5c-2,2-4.5,2.4-7.1,2.9c-1.1,0.2-2.2,0.5-3.3,0.5
		C521,269.4,525.2,266.2,528.5,262.4z"/>
	<path fill="#388E8E" d="M618.5,244.5c5.1-4.7,11.2-8,16.3-12.7c1.4-1.3,3.8-1.1,6-0.4c-2.5,0.7-2.9,5.2-6.7,3.8
		c-0.5-0.2-0.4,0.9,0,1.3c1.4,1.4-0.5,1.8-0.9,2.5l0,0c-3.8-0.2-7.8-0.7-8.5,4.9c-0.2,0.9-0.9,0.9-1.6,0.5c-1.4-0.7-2.7,0.5-4,0.5
		C618.8,245,618.7,244.7,618.5,244.5z"/>
	<path fill="#388E8E" d="M642.4,283.5c6.3,2.9,9.8-2.5,13.9-5.4c4-2.7,7.4-6,9.4-10.7c0.9-2.2,3.1-2.4,5.2-2.2
		c-5.6,7.8-12.7,14.1-20.6,19.3C647.4,286.6,644.7,286.4,642.4,283.5z"/>
	<path fill="#388E8E" d="M265.6,368.5c-0.2-0.7,0-1.6-0.7-1.8c-3.1-0.7-3.3-0.7-1.4-3.4c1.4-2.4,1.8-5.2,3.8-7.4
		c1.6-1.8-0.2-2.2-1.6-2.2c0.9-2.5,3.6-2.7,4.7-1.4c1.3,1.6,2.5,4.7-0.2,6.5c-1.4,1.1-2.2,2.4-3.1,3.6c-1.3,1.6-0.4,2.7,1.3,3.4
		C267.8,367.2,266.7,367.8,265.6,368.5z"/>
	<path fill="#388E8E" d="M401.9,229.6c-0.5,0.7-1.4,1.4-1.8,2.2c-1.3,2.7-2.4,5.4,2.9,5.2c-2.5,0.9-3.8,4-6.5,2.5
		c-1.6-0.9,1.3-1.8,0.2-3.6c-2,1.8-3.8,3.8-6,5.4c-1.6,1.3-2.5,3.8-5.2,3.3c2.5-4,6.7-6.5,9.8-9.8c1.3-1.4,3.1-2.7,3.4-4.5
		C399.4,227.3,400.6,228.6,401.9,229.6z"/>
	<path fill="#388E8E" d="M605.6,272.7c-0.2,0.7,1.8,0.9,0.5,1.8c-0.9,0.7-2,2.2-3.3,1.3c-1.1-0.7-2.5-2.2-2.2-3.3
		c1.4-3.1,3.4-6,5.2-8.7c0.2-0.4,1.3-0.2,2-0.2l0,0c0,0.9,0.4,1.6,1.4,1.4c0.2,0.4,0.4,0.5,0.5,0.9
		C608.7,268.2,607.1,270.5,605.6,272.7z"/>
	<path fill="#388E8E" d="M156.7,263.6c-0.5-3.1,0.2-5.4,3.1-7.1c0.7-0.4,1.3-1.4,2.2-0.9c1.1,0.5,0.7,1.8,0.5,2.5
		c-0.7,3.8-2.9,7.1-3.8,10.8c-0.5,2.7,1.4,5.4-0.4,8c-2.5-3.6-1.1-7.4-0.2-11C158.4,264.9,160,262.7,156.7,263.6z"/>
	<path fill="#388E8E" d="M123.1,255.7c-2,5.1-2.9,10.7-9.6,12.1c-2,0.4-3.6,2-5.1,3.4c-1.3,1.4-2.7,1.8-4.5,1.1c0-0.2,0-0.4,0.2-0.4
		C111.4,267.6,117.9,262.4,123.1,255.7z"/>
	<path fill="#388E8E" d="M704.2,242.1c3.4,4.9-1.1,8-2.4,12.8c-2.7-10.1-2.7-10.1-7.4-11.2c2.2-2,5.2-0.7,7.1-2.9
		C702.6,241.4,703.5,241.8,704.2,242.1z"/>
	<path fill="#388E8E" d="M483.1,283c-0.9-2.2-1.8-4.2-2.9-6.5c1.8-0.7,2.9,1.3,4.7,0.5c2.4-0.9,1.4-2.5,1.1-4.7
		c2.5,1.4,4.7,0.5,6.9,1.3C490.5,277.6,487.2,280.8,483.1,283z"/>
	<path fill="#388E8E" d="M143.5,238.1c-3.1,3.3-6.5,6.1-10.3,8.5c-3.3,2.2-4.5,6.1-7.8,8.1c-0.9,0.5-1.4,1.3-2.5,0.7
		c5.1-7.2,11.4-12.7,18.8-17.4C142.3,238,143,237.2,143.5,238.1z"/>
	<path fill="#388E8E" d="M870.1,219.7c1.4,3.4-1.8,4.9-3.3,6.5c-2.9,3.3-5.4,6.5-7.1,10.5c-0.4,0.9-1.3,1.4-2.4,1.6
		C860.4,231.1,864.5,224.9,870.1,219.7z"/>
	<path fill="#388E8E" d="M207.7,285.9c2.2-3.3,4.9-6,7.8-8.5c0.4-0.4,1.1-1.1,0.5-1.1c-2.9-0.4-1.8-1.6-0.5-2.4
		c1.8-1.1,3.8-0.9,4.9,1.4c-3.4,3.3-7.1,6.5-10.5,9.8C209.4,285.7,208.8,286.4,207.7,285.9z"/>
	<path fill="#388E8E" d="M468.2,292.2c3.1-1.3,6.1-2.7,8.5-5.2c0.5-0.7,2.2-1.4,0.7-2c-3.8-1.4-1.1-2.7,0-4.3
		c0.7,3.6,3.3,2.9,5.6,2.5c-2.5,3.8-6.3,6.1-9.9,8.9C471.7,292.7,469.9,293.1,468.2,292.2z"/>
	<path fill="#388E8E" d="M730.8,280.3c1.3-0.9,1.6-3.1,3.8-2.4c2,0.5,2.2,2.2,2.4,3.8c0.2,1.3,0.5,2.4,0.9,3.6l0,0
		c-0.7-0.2-1.4,0-1.8,0.7C732.7,285.5,731.5,283.2,730.8,280.3z"/>
	<path fill="#388E8E" d="M641.6,243.6c0.4-3.6,2.7-0.5,4.3-1.4c-1.4-1.1-2.5-2.9-0.5-4.2c2-1.3,3.3,0.9,4.3,2
		c1.4,1.3,0.9,3.3,0.9,5.1C647.6,244.7,644.5,244.1,641.6,243.6z"/>
	<path fill="#388E8E" d="M655,247c2,4,1.1,6.5-2.4,6.3c-0.5,0-1.1-0.2-1.6-0.4c1.3-3.6-3.3-2.7-3.8-4.9
		C649.8,247.2,652.3,246.5,655,247z"/>
	<path fill="#388E8E" d="M940.5,222.4c-1.4,0-1.8-1.3-2.2-2.2c-0.9-4.3-2.7-8.1-6.7-10.7c-0.5-0.4-1.3-2.2,0-3.3
		C937.2,210.5,939.6,216.1,940.5,222.4z"/>
	<path fill="#388E8E" d="M810.1,292.2c-0.5-0.7-2.2,0-2.2-1.4c0-2,1.3,0.5,2.2-0.5c2.4-3.3,5.1-6.1,7.6-9.2c1.3-1.4,1.8-3.6,4.3-3.1
		C818.1,282.6,814.1,287.5,810.1,292.2z"/>
	<path fill="#388E8E" d="M257.8,333.4c-1.8,6.1-6.7,10.5-10.1,15.5c-0.5,0.7-1.3,0.2-1.6-0.5C250.4,343.9,252.9,337.8,257.8,333.4z"
		/>
	<path fill="#388E8E" d="M62.9,302.1c4.2,0.9,8.1,1.4,11.4-1.8c1.3-1.3,2.5,0,3.8,0c-2.7,2.9-6.3,4.2-10.1,4.3
		C66,304.7,64,304.1,62.9,302.1z"/>
	<path fill="#388E8E" d="M633.1,239.2c0.2-0.9,2.2-1.1,0.9-2.5c-0.4-0.4-0.5-1.4,0-1.3c3.8,1.4,4.3-3.1,6.7-3.8
		c0.4,0.2,0.5,0.4,0.9,0.5c0.2,1.6-0.9,3.1-1.4,4.5C639.1,239.8,636,240,633.1,239.2z"/>
	<path fill="#388E8E" d="M190.9,257.5c0.2,2.5-2.2,3.1-3.6,4c-4,2.9-7.6,6.3-12.5,7.6C179.9,264.7,185.7,261.5,190.9,257.5z"/>
	<path fill="#388E8E" d="M736,324.4c-1.1,3.6-4.7,5.2-6.5,8.3c-0.4,0.5-2.5,0.5-3.6-0.9C728.9,329.1,732.4,326.7,736,324.4z"/>
	<path fill="#388E8E" d="M142.6,272.7c1.4-1.4,3.3-2.5,2.9-5.2c-0.2-1.6,1.8-1.1,2.9-0.5l0,0c0.4,0.7,1.1,0.7,1.6,0.9
		c0.2,0.2,0.4,0.4,0.4,0.5c-2.7,2.2-5.6,4.5-8.3,6.7c-0.2-0.2-0.4-0.4-0.5-0.5C141.9,273.8,142.3,273.2,142.6,272.7L142.6,272.7z"/>
	<path fill="#388E8E" d="M618.8,266.5c-2.4,4.5-5.4,7.2-10.8,6C611.6,270.5,614.7,267.6,618.8,266.5z"/>
	<path fill="#388E8E" d="M739.3,241c0,0.7,0.2,1.3,0.9,1.6c-3.1,2-6.7,2-10.1,2.4l0,0C732.4,242.1,736,241.8,739.3,241z"/>
	<path fill="#388E8E" d="M262.9,329.4c-2.2,0.7-2.4,4.2-5.2,4c2.2-3.8,4.9-7.4,8.3-10.1c0.2,0.2,0.2,0.2,0.4,0.4
		C266.3,326.2,262.9,326.9,262.9,329.4L262.9,329.4z"/>
	<path fill="#388E8E" d="M779.6,261.1c0.2-2,2.9-5.2-2.2-4.7c-0.4-0.9,0.2-1.1,0.7-1.4c3.1-1.8,3.1-1.8,4.7,2.5
		C782.1,259.3,781,260.4,779.6,261.1z"/>
	<path fill="#388E8E" d="M931.4,247.5c-1.6-1.6,0-2.9,0.9-4c2-2.4,2-6.1,5.2-7.6C936.5,240.3,933.6,243.8,931.4,247.5z"/>
	<path fill="#388E8E" d="M148.4,266.9c-0.5-2.7,1.8-4,3.4-4.3c3.4-0.5,0,2.7,1.6,3.4c-0.9,0.7-2,1.4-2.9,2.2
		c-0.2-0.2-0.4-0.4-0.4-0.5C149.7,266.9,149.2,266.9,148.4,266.9L148.4,266.9z"/>
	<path fill="#388E8E" d="M826.9,225.3c-2.4,3.4-5.4,3.6-8.9,2.2C820.8,225.7,823.7,224.6,826.9,225.3z"/>
	<path fill="#388E8E" d="M533.7,255c-0.9,3.1-0.2,7.2-5.2,7.4C529.5,259.5,531.7,257.3,533.7,255z"/>
	<path fill="#388E8E" d="M539.3,248.1c0,3.8-2,6.1-5.6,6.9C535.5,252.8,536.4,249.7,539.3,248.1z"/>
	<path fill="#388E8E" d="M602,260.7c-0.9,2.9-1.4,6.3-5.2,7.1C597.9,264.9,599.5,262.6,602,260.7z"/>
	<path fill="#388E8E" d="M210.3,248.5c-0.7-1.4-1.3-2.9,1.1-3.1c1.6-0.2,2.7-2.7,4.7-1.1C214.2,245.6,212.2,247,210.3,248.5z"/>
	<path fill="#388E8E" d="M78.3,275.4c0.5-3.4,2.4-5.8,5.8-6.9C82.6,271.1,80.8,273.4,78.3,275.4z"/>
	<path fill="#388E8E" d="M624.8,262.6c-0.9,3.1-2.9,4.3-6,4C620.3,264.5,622.5,263.6,624.8,262.6z"/>
	<path fill="#388E8E" d="M364.8,251c-0.2-2.2-2.7-3.6-2.2-6.1C366.5,245.7,365.9,248.3,364.8,251z"/>
	<path fill="#388E8E" d="M297.2,337.9c0-2.9,1.8-4,4.3-4C300.5,335.6,299.2,337.2,297.2,337.9z"/>
	<path fill="#388E8E" d="M269,364.9c-0.2-2.9,1.6-3.8,4.2-3.4C272.1,362.9,270.6,364,269,364.9z"/>
	<path fill="#388E8E" d="M396.7,286.1c0.2-1.6,0.2-3.3,0.4-5.2c1.8,1.4,1.8,3.1,1.3,4.7C397.7,285.9,397.2,286.1,396.7,286.1z"/>
	<path fill="#388E8E" d="M574.9,281.2c0-1.3-1.1-1.8-2-2.4c1.6-0.4,3.1-0.7,4.5-1.1C577.4,279.5,576.2,280.5,574.9,281.2z"/>
	<path fill="#388E8E" d="M191.3,266.2c-0.2-2.9,1.4-3.6,4-3.6C194,263.8,192.7,265.1,191.3,266.2z"/>
	<path fill="#388E8E" d="M329.8,271.2c0.2-2.2,1.8-2.5,3.4-2.5C332.7,270.1,331.2,270.7,329.8,271.2z"/>
	<path fill="#388E8E" d="M175,269.1c-0.4,2-1.8,2-3.3,2C172.7,269.8,173.7,269.2,175,269.1z"/>
	<path fill="#388E8E" d="M273,361.4c0-1.8,0.7-2.7,2.5-2.5C275.2,360.2,274.3,360.9,273,361.4z"/>
	<path fill="#388E8E" d="M569.7,283.5c0.7-1.3,1.6-0.9,2.7-0.7C571.7,284.2,570.8,284.1,569.7,283.5z"/>
	<path fill="#388E8E" d="M60.7,301.1c1.6-1.3,2.4-0.7,2.4,1.1C62.2,301.8,61.5,301.4,60.7,301.1z"/>
	<path fill="#388E8E" d="M572.4,283c0.2-1.6,1.1-2,2.5-1.8C574.4,282.4,573.6,283.2,572.4,283z"/>
	<path fill="#388E8E" d="M167.1,238.1c-1.4,0.2-2.4-0.2-2.7-1.6C165.6,236.5,166.5,236.9,167.1,238.1z"/>
	<path fill="#388E8E" d="M422.3,228.6c1.1,0,2.5-0.2,0.9,1.6C423.1,229.6,422.7,229.1,422.3,228.6z"/>
	<path fill="#388E8E" d="M777.8,262.7c-0.2-1.3,0.4-2,1.8-1.6C779.4,262,778.7,262.6,777.8,262.7z"/>
	<path fill="#388E8E" d="M641.3,281.9c0.9,0.2,0.9,0.9,1.1,1.4C641.6,283.2,641.1,282.8,641.3,281.9z"/>
	<path fill="#388E8E" d="M736,285.9c0.4-0.7,1.1-0.9,1.8-0.7C737.4,286.2,736.7,286.2,736,285.9z"/>
	<path fill="#388E8E" d="M740.2,242.7c0.4-0.9,0.9-0.9,1.6-0.4C741.2,242.5,740.7,242.7,740.2,242.7z"/>
	<path fill="#388E8E" d="M844.3,296.2c0.4,0.4,0.7,0.5,1.3,0.9C844.8,297.1,844.5,296.7,844.3,296.2z"/>
	<path fill="#388E8E" d="M603.1,259.3c0,0.7-0.2,1.4-1.1,1.6C601.9,260,602.4,259.7,603.1,259.3z"/>
	<path fill="#388E8E" d="M333.2,268.7c0.2-0.9,0.9-1.1,1.6-1.1C334.5,268.3,334.1,268.9,333.2,268.7z"/>
	<path fill="#388E8E" d="M189.5,267.8c0-0.5,0.4-0.9,0.9-0.9C190.6,267.6,190.2,267.8,189.5,267.8z"/>
	<path fill="#388E8E" d="M190.4,266.9c0-0.5,0.4-0.9,0.9-0.9C191.3,266.7,191.1,267.1,190.4,266.9z"/>
	<path fill="#388E8E" d="M302.3,333.1c0-0.5,0.4-0.9,0.9-0.9C303.4,332.9,303,333.1,302.3,333.1z"/>
	<path fill="#388E8E" d="M301.6,333.8c0.4-0.4,0.5-0.5,0.9-0.9C302.6,333.6,302.1,334,301.6,333.8z"/>
	<path fill="#388E8E" d="M268.1,365.6c0.4-0.4,0.5-0.5,0.9-0.9C269,365.4,268.8,365.8,268.1,365.6z"/>
	<path fill="#388E8E" d="M167.8,238.3c-0.2,0.2-0.4,0.4-0.5,0.5c0-0.2,0-0.5-0.2-0.7C167.4,238,167.6,238.1,167.8,238.3z"/>
	<path fill="#388E8E" d="M275.5,358.9c0.4-0.4,0.5-0.7,0.9-0.9C276.2,358.4,276.2,358.9,275.5,358.9z"/>
	<path fill="#388E8E" d="M77.4,276.8c-0.2-0.2-0.4-0.4-0.4-0.5c0.2,0,0.5,0,0.7-0.2C77.9,276.5,77.7,276.7,77.4,276.8z"/>
	<path fill="#388E8E" d="M304.8,253.5c0.7,0.5,0.4,0.7-0.2,0.7C304.5,253.9,304.5,253.7,304.8,253.5z"/>
	<path fill="#388E8E" d="M556.3,260.2c0.4-0.4,0.5-0.5,0.9-0.9C557,259.7,556.7,260,556.3,260.2z"/>
	<path fill="#388E8E" d="M640.7,281.9c0.2-0.2,0.4-0.4,0.5-0.4c0,0.2,0,0.5,0,0.7h-0.4L640.7,281.9z"/>
	<path fill="#388E8E" d="M785.2,255.1c-0.2-0.2-0.2-0.4-0.4-0.5c0.2,0,0.5,0,0.7,0C785.7,254.8,785.5,255,785.2,255.1z"/>
	<path fill="#388E8E" d="M148.4,234.2c-0.4,0.2-0.5,0.5-0.9,0.7C147.9,234.7,148.1,234.5,148.4,234.2z"/>
	<path fill="#388E8E" d="M742.1,281c-0.2,0.2-0.4,0.4-0.5,0.5c-0.2-0.2-0.5-0.2-0.7-0.4c0.2-0.4,0.5-0.5,0.7-0.9
		C742,280.5,742,280.6,742.1,281z"/>
	<path fill="#388E8E" d="M312.2,245.7c-0.4,0.4-0.5,0.5-0.9,0.9C311.1,245.9,311.3,245.6,312.2,245.7z"/>
	<path fill="#388E8E" d="M311.1,246.5c0,0.2,0,0.5,0,0.7c-0.2-0.2-0.4-0.4-0.5-0.5C310.6,246.5,310.8,246.3,311.1,246.5z"/>
	<path fill="#388E8E" d="M77.6,276.1c0.4-0.4,0.5-0.5,0.9-0.9C78.3,275.8,78.3,276.3,77.6,276.1z"/>
	<path fill="#388E8E" d="M87.5,251.7c0.9-2.5,2.5-4.2,5.1-5.1l0,0C94.6,252.1,89.5,250.6,87.5,251.7L87.5,251.7z"/>
	<path fill="#388E8E" d="M120.8,279.2c2.7-1.4,5.6-2.9,8.3-4.2C127.3,278.3,124.6,279.9,120.8,279.2z"/>
	<path fill="#388E8E" d="M129.1,275c2.4-2.4,4.7-4.3,8.1-5.1C134.9,272.3,132.9,275.2,129.1,275z"/>
	<path fill="#388E8E" d="M92.4,246.8c0.2-1.4,0.7-2.7,2.7-2c0.9,0.4,1.6,0.9,0.9,2.2C94.6,249.7,93.6,246.1,92.4,246.8L92.4,246.8z"
		/>
	<path fill="#388E8E" d="M60.7,288.4c0.4,0,0.9,0,1.3,0c1.1,0,2,0.4,2,1.6c0,0.5-0.2,1.3-0.5,1.4c-1.1,0.5-1.6-0.5-2.4-1.3
		c-0.4-0.4-0.4-1.1-0.5-1.4L60.7,288.4z"/>
	<path fill="#388E8E" d="M79.5,264.4c-0.7,0-1.8,0.2-1.8-1.1c0-0.7,0.7-1.1,1.4-1.3c1.1-0.2,1.6,0.5,1.6,1.4
		C81,264.4,80.1,264.2,79.5,264.4z"/>
	<path fill="#388E8E" d="M124.6,270.5c-0.4,1.8-1.4,2.9-2.7,4C121.7,272.5,121.5,270.3,124.6,270.5z"/>
	<path fill="#388E8E" d="M60.6,288.6c-0.4-0.2-0.7-0.4-0.9-0.7c-0.5-0.7-1.6-1.1-1.1-2.4c0.2-0.2,0.7-0.4,1.1-0.4
		c0.9,0.2,0.9,1.1,1.1,2c0,0.4,0,0.7,0.2,1.3C60.7,288.4,60.6,288.6,60.6,288.6z"/>
	<path fill="#388E8E" d="M133.4,252.6c-2-0.2-1.1-1.8-1.3-2.9c0,0,0.7-0.5,1.1-0.4C135.1,250.3,132.9,251.5,133.4,252.6L133.4,252.6
		z"/>
	<path fill="#388E8E" d="M121.9,274.5c-0.2,0.9-0.4,1.6-1.6,1.8C119.9,274.8,120.6,274.3,121.9,274.5z"/>
	<path fill="#388E8E" d="M81.7,260.6c-0.2-0.2-0.5-0.2-0.7-0.4c0-0.2,0.2-0.4,0.2-0.7c0.2,0.2,0.5,0.2,0.7,0.4
		C82.1,260.2,81.9,260.4,81.7,260.6z"/>
	<path fill="#388E8E" d="M152.6,236c-0.2,0.5-0.2,1.3-1.1,1.3c-0.2,0-0.2-0.2-0.2-0.2C151.3,236,152,236,152.6,236L152.6,236z"/>
	<path fill="#388E8E" d="M122.6,218.3c-0.4,0.4-0.7,0.7-1.1,1.1c-0.2-0.2-0.2-0.4-0.4-0.5C121.7,218.8,122,218.6,122.6,218.3
		L122.6,218.3z"/>
	<path fill="#388E8E" d="M120.2,276.1c0.5,1.1-0.4,1.4-0.9,2C119.3,277.4,119.1,276.5,120.2,276.1z"/>
	<path fill="#388E8E" d="M118.4,279c0.2,0.2,0.5,0.4,0.7,0.4C118.4,280.3,118.6,279.4,118.4,279z"/>
	<path fill="#388E8E" d="M87.5,251.7c0,0.2-0.2,0.2-0.2,0.4C87.3,252.1,87.3,251.9,87.5,251.7L87.5,251.7z"/>
	<path fill="#388E8E" d="M740.5,337.6c-1.6,2.2-3.3,4.3-4.9,6.5c-0.2-0.2-0.4-0.2-0.4-0.4c-0.2-0.7-0.5-0.7-0.9,0l0,0
		c-2.2-0.4-3.1,0.7-4,2.5c-1.1,2.7-3.1,4.2-6.1,2.4l0,0c4.7-3.3,8-8.1,11.9-12.1c-2-1.4-3.1,1.3-5.1,0.7c1.4-2.9,4.3-4.3,6.9-5.6
		c1.4-0.7,1.4,0.7,1.4,1.6C739.3,334.9,739.1,336.5,740.5,337.6z"/>
	<path fill="#388E8E" d="M758.1,322.8c-2.2,2.9-5.1,4.7-8.3,6.1c-0.4-0.9-0.7-2.4-0.2-2.7c2.7-1.3,3.1-3.1,2.7-5.8
		c0-0.7,3.3-0.9,4.7-2.4c1.1-1.1,3.3-2.9,5.4-0.9c1.3,1.1,2.9-0.7,4.3-0.2C764,319.1,761.5,321.5,758.1,322.8
		c-2.2-2.2-2.2-2.2-4.2,0.7C755.3,323.3,756.8,323.1,758.1,322.8z"/>
	<path fill="#388E8E" d="M778.3,321.7c3.1-4.9,6.9-9.4,10.7-13.7c0.9,0.2,2.9,0,1.4,1.4c-1.3,1.3-1.3,3.3-2.7,4.3
		c-2.5,1.6-4,4.3-5.6,6.7C780.8,322.2,779.8,322,778.3,321.7z"/>
	<path fill="#388E8E" d="M787,307c-5.6,3.3-11.4,6.1-17.2,8.5c-0.5-1.1-1.1-2-2-3.8c2.7,1.3,5.1,1.8,6.9-0.2
		c0.9-0.9-0.5-1.3-0.5-2.2c1.3-0.9,4.7,2.5,4.3-2C781.4,310.3,783.9,303.8,787,307z"/>
	<path fill="#388E8E" d="M765.3,336.1c1.8-4.5,6.3-6.7,9-10.5c1.1-1.4,2-3.3,4-4c1.8,3.4-1.8,4.2-3.1,5.8
		C772.3,330.9,770,334.9,765.3,336.1z"/>
	<path fill="#388E8E" d="M749.6,329.1c-1.3,2-2.9,3.8-5.1,4.9c0-1.4-2-2-1.6-3.6c3.4,0.9,3.8-0.5,2.4-3.3c-0.4-0.9-1.1-1.6-0.7-2.7
		c0.2-0.5,0.5-1.1,1.1-1.1c0.9-0.2,0.4,0.7,0.7,1.1C747.8,325.6,747.2,328.4,749.6,329.1z"/>
	<path fill="#388E8E" d="M753,346.1c2.9-2.5,5.4-5.4,9-7.1C760.6,343.4,757.3,345.4,753,346.1z"/>
	<path fill="#388E8E" d="M744.3,351.1c2.2-1.3,4.5-2.4,6.7-3.6C749.6,350.4,747.8,352.2,744.3,351.1z"/>
	<path fill="#388E8E" d="M724.2,348.8c-0.2,0.9,0.5,2.4-0.7,2.9c-0.9,0.4-0.9-0.7-1.1-1.3C721.7,348.4,723.3,348.8,724.2,348.8
		L724.2,348.8z"/>
	<path fill="#388E8E" d="M769.6,315.5c-0.4,1.3-1.4,1.4-2.5,1.6C766.9,315,768.2,315.3,769.6,315.5z"/>
	<path fill="#388E8E" d="M742.7,335.4c-0.7,0.7-1.1,1.8-2.4,2C740,335.2,741.4,335.4,742.7,335.4z"/>
	<path fill="#388E8E" d="M805.2,296.9c-0.5-0.2-1.3,0-1.3-1.1c0-0.2,0.2-0.2,0.2-0.2C805.2,295.6,805.2,296.4,805.2,296.9
		L805.2,296.9z"/>
	<path fill="#388E8E" d="M744.5,333.8c-0.5,0.5-1.3,1.1-1.8,1.6C742.7,334.1,743.2,333.6,744.5,333.8z"/>
	<path fill="#388E8E" d="M735.6,344.1c-0.4,0.5-0.9,0.9-1.3,1.4c0-0.5,0-1.1,0-1.8l0,0h0.4h0.4C735.3,343.9,735.5,343.9,735.6,344.1
		z"/>
	<path fill="#388E8E" d="M258,352.8c8.5-4,14.8-11.2,22.1-16.8c11.4-8.9,21.5-19.3,31.5-29.8c1.8,2.4,0.5,4.7-1.3,5.8
		c-2.2,1.4-2.2,5.6-6,4.7c-1.6,5.1-7.2,6.5-9.8,10.8c-2.2,3.6-6.1,5.4-9.6,7.8c-2.7,1.8-5.4,4-7.6,6.3c-3.3,3.6-7.1,6.1-11,8.7
		c-1.8,1.1-2,2-0.7,3.4c0,0.2-0.2,0.5-0.2,0.7C263.1,353.1,259.8,355.7,258,352.8z"/>
	<path fill="#388E8E" d="M337.2,254.2c1.1-1.4,2.7-2.5,4.3-3.4C341.7,254.1,339.7,254.4,337.2,254.2z"/>
	<path fill="#388E8E" d="M310.6,302c-1.1,1.8-2.7,2.7-4.9,2.7C306.4,302,309,302.7,310.6,302z"/>
	<path fill="#388E8E" d="M333,285.2c0,0.2,0,0.2-0.2,0.4c-0.2-0.2-0.2-0.2-0.4-0.4l0.2-0.2C332.8,285,332.8,285,333,285.2z"/>
	<path fill="#388E8E" d="M342.2,250.1c0.5-0.4,1.1-0.9,1.6-1.3C343.9,249.7,343.1,250.1,342.2,250.1z"/>
	<path fill="#388E8E" d="M849.2,286.8c-0.7,4.3,1.1,5.6,6.5,4.7c6.7-1.1,12.5-4.3,18.3-7.4c10.1-5.2,18.8-12.7,27.3-20.1
		c1.3-1.1,2.2-2.9,4-3.3c0.2,3.4-2.7,5.2-4.7,6.7c-9.8,7.8-19.5,15.7-30.9,21.2c-6,2.9-12.3,4.2-18.8,4.9c-2.2,0.2-5.2,0.5-4-3.4
		c0.2-0.5-0.2-0.9-0.7-1.3c-2.5-2.7-2.5-2.7,1.1-4.9C848.3,284.4,846.3,287.3,849.2,286.8z"/>
	<path fill="#388E8E" d="M905.2,260.6c4-4.7,8-9.2,11.9-13.9C916.4,251,908.8,259.8,905.2,260.6z"/>
	<path fill="#388E8E" d="M850.4,283.2c0.4,1.6-0.2,2.7-1.6,3.4C848.6,285,849.5,284.1,850.4,283.2z"/>
	<path fill="#388E8E" d="M137.4,208.7c0.9,0.2,0.9,0.9,0.9,1.4c0,0.5-0.2,1.1-0.9,1.1c-0.7,0-1.3-0.5-1.3-1.3
		S136.7,208.9,137.4,208.7z"/>
	<path fill="#388E8E" d="M85.7,244.3c-0.2,0.5,0,1.3-1.1,1.3c-0.2,0-0.2-0.2-0.2-0.2C84.4,244.3,85.2,244.3,85.7,244.3L85.7,244.3z"
		/>
	<path fill="#388E8E" d="M133.1,212.7c-0.2-0.2-0.4-0.4-0.4-0.7c0-0.2,0.2-0.4,0.4-0.7c0.2,0.2,0.4,0.4,0.4,0.5
		C133.4,212.3,133.1,212.5,133.1,212.7z"/>
	<path fill="#388E8E" d="M120.4,213.6c0-0.2-0.2-0.4-0.2-0.4c0.2,0,0.2,0,0.4,0C120.6,213.2,120.4,213.4,120.4,213.6z"/>
	<path fill="#388E8E" d="M60.9,275.6c0,0.2,0,0.2-0.2,0.2c-0.2,0-0.2,0-0.4-0.2c0-0.2,0-0.2,0.2-0.2S60.7,275.6,60.9,275.6z"/>
	<path fill="#388E8E" d="M882.1,241.4c0.5-0.2,1.1-0.4,1.8-0.4c1.1,0.9,2,1.8,3.6,1.3h0.2c-0.7,1.6-3.1,2-2.5,4.7
		c0.2,0.9-2.7,2-3.6,1.1c-0.7-0.7-0.7-2.9-0.4-4.2C881.2,243,882.3,242.5,882.1,241.4z"/>
	<path fill="#388E8E" d="M904,201.6c0.7-2.2,6.1-4.9,7.8-3.8c0.2,0.2,0.5,0.9,0.4,1.1c-1.6,1.6-3.3,3.3-5.1,4.9
		c-0.4,0.4-1.3,0.4-0.9-0.5C907.2,200,904.5,202.4,904,201.6L904,201.6z"/>
	<path fill="#388E8E" d="M853,273.4c0.2-4.9,4.2-6.5,7.1-9.4c0.9,2,0.4,3.4-1.4,4.2c-2,0.9-3.1,1.6-2.5,4.7
		C856.6,276.7,854.1,273,853,273.4C853,273.6,853,273.4,853,273.4z"/>
	<path fill="#388E8E" d="M877.9,214.1c2.4-0.9,3.3-2.7,4.7-4.2c1.3-1.1,2.4-0.7,3.3,0.4c0.9,1.1-0.4,1.6-1.1,2
		C882.8,213.6,881.5,216.5,877.9,214.1z"/>
	<path fill="#388E8E" d="M891.7,247c-2.2,2-4.3,4.3-7.8,4.2c0.5-2.5,3.1-3.4,4.5-5.2C889.7,244.3,890.6,246.6,891.7,247z"/>
	<path fill="#388E8E" d="M896.5,208.3c-0.7-2.2-2.7-2.7-4.2-4.2c2.5-0.9,4.5-2,7.1-1.4C899.1,204.9,894.9,204.9,896.5,208.3z"/>
	<path fill="#388E8E" d="M914.6,198.6c2.7,1.8,3.3,3.4,2.2,5.4c-0.5,0.7-1.4,1.3-2.2,0.5C912.3,202.5,915.3,200.9,914.6,198.6z"/>
	<path fill="#388E8E" d="M904,201.6c0,0.2,0.2,0.2,0.2,0.4c0.5,1.6,0,2.7-1.4,3.4c-0.5,0.4-1.1-0.2-1.1-0.7
		C901.2,202.7,902,201.8,904,201.6L904,201.6z"/>
	<path fill="#388E8E" d="M862.6,263.6c-0.4-2,0.2-2.7,1.4-3.3C864.9,261.8,863.8,262.6,862.6,263.6z"/>
	<path fill="#388E8E" d="M867.1,258.4c0.2-0.9,0.4-1.6,1.4-1.4c0.2,0,0.5,0.4,0.5,0.4C868.9,258.4,868,258.4,867.1,258.4
		L867.1,258.4z"/>
	<path fill="#388E8E" d="M851.9,270.1c-0.2,0.2-0.4,0.4-0.5,0.4c-0.5,0-0.7-0.4-0.5-0.7c0-0.2,0.5-0.4,0.7-0.2
		C851.7,269.6,851.7,270,851.9,270.1z"/>
	<path fill="#388E8E" d="M867.3,258.6c-0.2,0.7-0.2,1.4-1.1,1.3c-0.2,0-0.2-0.2-0.2-0.4C865.8,258.6,866.5,258.6,867.3,258.6
		C867.1,258.4,867.3,258.6,867.3,258.6z"/>
	<path fill="#388E8E" d="M885.9,214.5c0.2-0.2,0.2-0.5,0.4-0.7c0.2,0,0.4,0.2,0.7,0.2c-0.2,0.2-0.2,0.5-0.4,0.7
		C886.4,214.6,886.1,214.5,885.9,214.5z"/>
	<path fill="#388E8E" d="M888,209.2c-0.2,0.2-0.2,0.2-0.4,0.4C887.9,209.4,887.9,209.2,888,209.2L888,209.2z"/>
	<path fill="#388E8E" d="M888,209c0.2-0.2,0.2-0.2,0.4-0.4C888.2,208.9,888.2,209,888,209L888,209z"/>
	<path fill="#388E8E" d="M277.7,262.2c1.1,0,1.3,0.9,1.4,1.6c0.4,1.1-0.4,1.8-1.4,2c-1.1,0.2-1.4-0.5-1.4-1.4
		C276.4,263.3,276.6,262.6,277.7,262.2z"/>
	<path fill="#388E8E" d="M231.8,261.1c-0.2,0.2-0.4,0.2-0.5,0.4c-0.2-0.4-0.2-0.5-0.4-0.9c0.2,0,0.5-0.2,0.7-0.2
		C231.6,260.6,231.6,260.9,231.8,261.1z"/>
	<path fill="#388E8E" d="M277.2,231.6c-0.4,0.2-0.5,0.4-0.9,0.7C275.9,231.3,276.8,232,277.2,231.6L277.2,231.6z"/>
	<path fill="#388E8E" d="M222.2,270h0.2c0,0,0,0.2,0,0.4c-0.2,0-0.4,0-0.4,0C222.2,270.1,222.2,270,222.2,270z"/>
	<path fill="#388E8E" d="M275.5,269.2c0,0.2-0.2,0.2-0.2,0.4C275.3,269.6,275.3,269.4,275.5,269.2L275.5,269.2z"/>
	<path fill="#388E8E" d="M275.5,269.2c0.4-0.4,0.5-0.5,0.9-0.9l0,0C276.1,268.7,275.7,269.1,275.5,269.2L275.5,269.2z"/>
	<path fill="#388E8E" d="M277.2,231.6c0-0.2,0.2-0.2,0.2-0.4C277.3,231.5,277.2,231.6,277.2,231.6L277.2,231.6z"/>
	<path fill="#388E8E" d="M276.2,268.5c0.2-0.2,0.2-0.2,0.4-0.4v0.2C276.4,268.3,276.4,268.5,276.2,268.5L276.2,268.5z"/>
	<path fill="#388E8E" d="M469.7,285.2c-1.6-0.7-2.7-1.3-2.5-2.7c0.2-1.3,0.9-2.4,2.5-2.2c1.1,0.2,2.7,0.4,2.5,1.6
		C471.9,283.2,470.6,284.1,469.7,285.2z"/>
	<path fill="#388E8E" d="M547.1,229.3c1.3,0,3.1-0.7,3.3,1.3c0.2,1.3-0.5,2.7-1.6,1.1C548.2,230.9,547.3,230.4,547.1,229.3z"/>
	<path fill="#388E8E" d="M531.2,243.4c0.2-0.7-0.2-1.6,0.7-2c0.2,0,0.7,0.4,0.7,0.7C533,243,532.1,243.2,531.2,243.4L531.2,243.4z"
		/>
	<path fill="#388E8E" d="M507.8,239.2c0.2-0.5,0.2-1.1,0.7-1.3c0.2,0,0.5,0.4,0.4,0.5C508.9,239.2,508.4,239.2,507.8,239.2
		L507.8,239.2z"/>
	<path fill="#388E8E" d="M507.8,239.2c0,0.5,0,1.1-0.7,1.3c-0.2,0-0.5-0.4-0.5-0.4C506.8,239.4,507.3,239.4,507.8,239.2L507.8,239.2
		z"/>
	<path fill="#388E8E" d="M531.2,243.4c-0.4,0.5-0.9,0.9-1.6,0.7c-0.2,0-0.2-0.2-0.2-0.4C529.9,243.6,530.6,243.6,531.2,243.4
		L531.2,243.4z"/>
	<path fill="#388E8E" d="M287.1,246.8c0,1.6,0.2,3.3-0.7,4.7c-0.7,1.1-1.8,1.4-2.7,0.7c-1.1-0.9-0.5-1.8,0.5-2
		C286,249.7,284.9,246.6,287.1,246.8L287.1,246.8z"/>
	<path fill="#388E8E" d="M284,235.1c-0.4,0.2-0.7,0.5-1.1,0.5c-0.5,0-0.7-0.4-0.5-0.7c0.2-0.2,0.7-0.4,1.1-0.4
		C283.8,234.4,283.8,234.7,284,235.1z"/>
	<path fill="#388E8E" d="M429.2,252.6c-0.4,0.9-0.5,1.8-1.1,2.7c-0.5,0.9-1.3,1.6-2.4,1.3c-0.9-0.2-1.6-0.9-1.4-1.8
		c0.2-2,1.8,0.4,2-0.5C427,253,427.8,252.4,429.2,252.6L429.2,252.6z"/>
	<path fill="#388E8E" d="M424,261.1c-0.2,0.2-0.4,0.2-0.5,0.4c-0.2-0.2-0.4-0.5-0.4-0.7c0.2,0,0.5-0.2,0.7-0.2
		C423.8,260.6,424,260.9,424,261.1z"/>
	<path fill="#388E8E" d="M429.2,252.6c0-0.5,0.2-1.1,0.2-1.6c0.2,0,0.4,0.2,0.5,0.2C429.7,251.7,429.6,252.1,429.2,252.6
		L429.2,252.6z"/>
	<path fill="#388E8E" d="M40.5,221.7c-3.1,1.3-5.8,0.7-8.5,0.7c-0.9,0-2.2-0.5-1.6-1.8c0.4-1.1,1.4-0.7,2-0.2
		c1.3,1.1,2.4,0.4,3.4-0.2C37.4,219.7,38.9,220.1,40.5,221.7z"/>
	<path fill="#388E8E" d="M52.2,217.5l0.2,0.2C52.4,217.5,52.4,217.5,52.2,217.5L52.2,217.5z"/>
	<path fill="#388E8E" d="M162.9,250.8c1.1-1.8,3.6-2.4,3.8-4.9c1.8,1.6,0.4,3.8,1.4,6.9C166.1,250.8,164.5,251,162.9,250.8z"/>
	<path fill="#388E8E" d="M159.6,253.3c0.4-0.5,0.9-0.9,1.3-1.4C160.9,252.8,160.5,253.3,159.6,253.3z"/>
	<path fill="#388E8E" d="M144.1,264.9c0.4-0.2,0.5-0.5,0.9-0.7c0.2,0.2,0.2,0.4,0.4,0.5C144.8,264.9,144.5,264.9,144.1,264.9z"/>
	<path fill="#388E8E" d="M161.3,251.7c0.5-0.4,0.9-0.5,1.4-0.9C162.4,251.2,161.8,251.3,161.3,251.7z"/>
	<path fill="#388E8E" d="M686.6,261.8c1.6,0,2.5-1.3,3.3-2.4c2.2-4,6.1-3.8,9.8-4.3c0.7-0.2,1.8,0,2,0.9c0.2,0.7-0.4,1.3-0.7,1.8
		c-2.4,3.8-4.7,7.1-9.9,6c-0.4,0-0.9,0.4-1.1,0.5c-0.9,1.3-2,2.2-3.4,1.3C684.1,264.4,687.4,263.1,686.6,261.8
		C686.5,261.8,686.6,261.8,686.6,261.8z"/>
	<path fill="#388E8E" d="M684.8,247.5c0.9,0.2,2.2-0.2,2.4,1.1c0.4,1.1-0.5,1.8-1.4,2.2c-1.3,0.5-2.2,1.6-4,1.3
		C682.5,250.3,685.2,249.7,684.8,247.5L684.8,247.5z"/>
	<path fill="#388E8E" d="M679.1,253.9c0.2,2.5-1.4,3.4-2.9,4.2c-0.5,0.4-1.1-0.4-0.9-0.9C675.4,255.3,676.9,254.4,679.1,253.9z"/>
	<path fill="#388E8E" d="M696.4,252.4c-0.2-0.2-0.2-0.4-0.4-0.5c0.4-0.2,0.5-0.2,0.9-0.4c0,0.2,0.2,0.5,0.2,0.7
		C696.9,252.2,696.8,252.2,696.4,252.4z"/>
	<path fill="#388E8E" d="M694.4,254.1c0.2,0,0.2,0,0.4,0c0,0,0.2,0.2,0,0.4c-0.2,0.4-0.4,0.4-0.5,0
		C694.4,254.2,694.4,254.1,694.4,254.1z"/>
	<path fill="#388E8E" d="M774.3,276.8c2.4,0.4,2.4,0.4,4.7,2.5c-2.9-0.5-6,3.6-7.6-1.6c-1.4,0.7-3.4,1.8-2.7-1.4c0.4-2.2,2.2-2,4-2
		C775.2,274.1,774.7,275.6,774.3,276.8c-0.2,0.2-1.1-0.4-0.9,0.7C773.8,277.2,774.1,277,774.3,276.8z"/>
	<path fill="#388E8E" d="M766.7,265.3c1.3,0,1.6,0.5,1.6,1.3c0,1.3-0.9,1.8-2.2,2c-0.7,0-1.4,0-1.3-1.1
		C765.3,266.4,765.8,265.4,766.7,265.3z"/>
	<path fill="#388E8E" d="M769.4,260.2c0.9,0,1.3,0.5,0.9,1.3c-0.4,0.9,0.2,2.5-1.4,2.5c-0.7,0-1.3-0.5-1.3-1.4
		C767.8,261.5,768.2,260.6,769.4,260.2z"/>
	<path fill="#388E8E" d="M774.5,264.4c-0.4,1.3-0.9,2.5-1.4,4C771.4,265.3,771.4,265.3,774.5,264.4
		C774.3,264.2,774.5,264.4,774.5,264.4z"/>
	<path fill="#388E8E" d="M767.8,273c0.2,0.2,0.4,0.4,0.4,0.5c0,0.5-0.4,0.7-0.7,0.5c-0.2,0-0.4-0.4-0.2-0.5
		C767.3,273.2,767.6,273,767.8,273z"/>
	<path fill="#388E8E" d="M834.5,245c0.2-0.4,0.2-0.7,0.4-1.1c0.2,0,0.4,0.2,0.4,0.2C835.1,244.5,834.9,244.8,834.5,245L834.5,245z"
		/>
	<path fill="#388E8E" d="M774.3,260.9c-0.5-0.4-0.5-0.5,0-0.9l0,0C774.3,260.4,774.5,260.7,774.3,260.9L774.3,260.9z"/>
	<path fill="#388E8E" d="M542,271.8c0.4-0.2,0.5-0.4,0.9-0.7C543.3,272.1,542.4,271.6,542,271.8L542,271.8z"/>
	<path fill="#388E8E" d="M635.3,263.5c-1.1-0.7-2.5-1.3-3.3-2.2c-0.5-0.9,0.9-2,1.6-2.5c1.4-1.3,3.1-2.2,4.7-3.3
		c0.7-0.5,1.6-1.6,2.2,0c0.4,0.9,0,1.8-1.1,2.2c-1.8,0.5-4.3,0.4-1.6,3.4C638.9,262.2,636.6,262.9,635.3,263.5z"/>
	<path fill="#388E8E" d="M651,262.2c-2,2.2-3.6,2.5-5.4,1.8c-0.5-0.2-0.5-1.1-0.2-1.4C646.7,261.1,648.5,261.8,651,262.2z"/>
	<path fill="#388E8E" d="M654.1,260.9c0.7,0,1.4,0.2,1.3,1.1c-0.2,0.7-0.4,1.6-1.3,1.8c-0.9,0.2-1.4-0.7-1.6-1.4
		C652.5,261.5,653,261.1,654.1,260.9z"/>
	<path fill="#388E8E" d="M230.3,245.9c0,0.2-0.2,0.2-0.2,0.4C230.1,246.1,230.3,246.1,230.3,245.9L230.3,245.9z"/>
	<path fill="#388E8E" d="M302.5,268.2l-0.2,0.2c0-0.2-0.2-0.4-0.2-0.4c0.2,0,0.2,0,0.4,0C302.5,267.8,302.5,268,302.5,268.2z"/>
	<path fill="#388E8E" d="M375,272.5c-0.7-0.4-2-0.5-2-1.6c-0.2-1.1,1.1-0.9,1.8-1.1c1.3-0.4,1.1,0.9,1.3,1.4
		C376.4,272.3,375.9,272.7,375,272.5z"/>
	<path fill="#388E8E" d="M392.3,252.6c-0.2,0.2-0.4,0.4-0.5,0.5c-0.2-0.2-0.4-0.4-0.4-0.5l0.2-0.4
		C391.8,252.4,392,252.6,392.3,252.6z"/>
	<path fill="#388E8E" d="M378,271.2c0.2,0,0.2,0,0.4-0.2c0,0.2,0,0.4,0,0.5c-0.2,0-0.2,0-0.4,0C378,271.6,378,271.4,378,271.2z"/>
	<path fill="#388E8E" d="M277.9,315.2c1.4-3.4,4.9-4.9,7.4-6.9c0.9-0.7,1.8-0.9,2.4,0.4c0.4,0.9,0.2,2.5-0.7,2.5
		C283.5,311.5,281.7,315.5,277.9,315.2C278.1,315.3,277.9,315.2,277.9,315.2z"/>
	<path fill="#388E8E" d="M262.9,329.4c0-2.5,3.4-3.3,3.4-5.8c0.5,0,1.1,0,1.6-0.2l0.2,0.2C267.2,326.4,266.7,329.4,262.9,329.4z"/>
	<path fill="#388E8E" d="M274.3,316.1c1.3-0.4,2.4-0.5,3.6-0.9l0,0C277.2,317.3,276.2,319,274.3,316.1L274.3,316.1z"/>
	<path fill="#388E8E" d="M273,319c0.2,0.2,0.4,0.4,0.4,0.5c-0.2,0.2-0.5,0.4-0.7,0.5c0-0.2-0.4-0.5-0.2-0.7
		C272.5,319.1,272.8,319.1,273,319z"/>
	<path fill="#388E8E" d="M289.4,312.1c-0.2,0-0.4,0.2-0.4,0s0-0.2-0.2-0.4c0.2,0,0.4-0.2,0.4,0C289.4,311.9,289.4,311.9,289.4,312.1
		z"/>
	<path fill="#388E8E" d="M267.9,323.5c0.2-0.2,0.4-0.2,0.5-0.4c-0.2,0.2-0.2,0.4-0.4,0.5C268.1,323.7,267.9,323.5,267.9,323.5z"/>
	<path fill="#388E8E" d="M586.8,252.8c-4-0.7-5.4,1.8-6,4.9c-0.4,2.4-2.7,4.3-1.1,6.9c0,0.2,0.2,0.4,0,0.4c-1.6,1.8-4.9,2-5.2,5.1
		c-1.8-1.1-3.6,0.2-5.4,0.2c-4.5-0.4-4,0-2.5-4.2c0.9-2.7,4.2-4.3,4.3-5.4c0.4-4.3,6.3-6,4.5-11c-0.4-1.1-0.4-2.5,1.1-3.3
		c1.3-0.7,2.7-0.7,4,0.2c1.8,1.3,2.7,3.8,5.4,3.8C586.7,250.4,587.2,251.5,586.8,252.8z"/>
	<path fill="#388E8E" d="M579.6,271.8c0,0.7-0.2,1.4-1.3,1.1c-0.5-0.4-1.3-0.7-1.4-1.3c-0.4-0.9,0.5-1.1,1.3-1.3
		C579.3,270.1,579.6,270.9,579.6,271.8z"/>
	<path fill="#388E8E" d="M252.7,357.1c0.4,0.4,0.7,0.7,0.7,0.9c0,0.4-0.2,0.9-0.4,1.1c-0.7,0.2-1.1-0.2-1.1-0.9
		C252.2,358,252.6,357.6,252.7,357.1z"/>
	<path fill="#388E8E" d="M256,360.9c0,0.7-0.2,0.9-0.7,0.9c-0.4-0.2-0.5-0.5-0.7-0.9c-0.2-0.4,0.2-0.9,0.5-0.7
		C255.6,360.4,255.8,360.7,256,360.9z"/>
	<path fill="#388E8E" d="M496.1,239.2c-0.4,0.4-0.5,0.5-0.9,0.9l0,0C495.5,239.8,495.9,239.6,496.1,239.2L496.1,239.2z"/>
	<path fill="#388E8E" d="M497.7,237.6c0-0.2,0.2-0.2,0.2-0.4C497.9,237.2,497.9,237.4,497.7,237.6L497.7,237.6z"/>
	<path fill="#388E8E" d="M421.4,224.9c-1.4,0.9-2.4,0-3.3-0.9C419.6,223.1,420.3,224.6,421.4,224.9z"/>
	<path fill="#388E8E" d="M619,245.2c1.4,0,2.5-1.3,4-0.5c0.7,0.4,1.6,0.4,1.6-0.5c0.7-5.6,4.7-4.9,8.5-4.9c0,2.4-2.7,1.1-3.3,2.5
		l0,0c-2.2,0.9-5.4,1.4-2.4,4.9c0.7,0.9,0.2,1.6-0.5,2c-1.1,0.5-2,2.9-3.4,1.6c-2.2-2-4.2-0.4-6.3-0.2l0,0
		C617.8,248.5,618.5,246.8,619,245.2z"/>
	<path fill="#388E8E" d="M617.2,250.1c-0.2,2-3.4,2.5-2.5,5.1l0,0c-1.4-0.2-2.4-0.9-1.6-2.4C613.8,251,614.9,249.5,617.2,250.1
		L617.2,250.1z"/>
	<path fill="#388E8E" d="M614.7,255.1c0.9,0.2,2.2,0,2,1.4c-0.2,0.7-0.9,1.1-1.6,0.9C613.2,256.9,614.7,255.9,614.7,255.1
		L614.7,255.1z"/>
	<path fill="#388E8E" d="M609.6,265.1c-1.1,0.2-1.4-0.5-1.4-1.4C609.1,263.5,609.6,264,609.6,265.1z"/>
	<path fill="#388E8E" d="M629.9,241.8c0.2,0.4,0.4,0.5,0.5,0.9C629.5,242.8,630.1,242.1,629.9,241.8L629.9,241.8z"/>
	<path fill="#388E8E" d="M800,240.1c-0.4-0.9-1.4-2-0.2-2.9c0.2-0.2,0.7-0.2,0.7,0C801.4,238.3,800,239.1,800,240.1z"/>
	<path fill="#388E8E" d="M787.7,245.9c0-0.5,0-1.1,0.7-1.3c0.2,0,0.5,0.4,0.5,0.5C789,245.9,788.2,245.9,787.7,245.9L787.7,245.9z"
		/>
	<path fill="#388E8E" d="M787.7,247.5c0.2,0,0.2,0.2,0.4,0.2C788.1,247.7,787.9,247.7,787.7,247.5L787.7,247.5z"/>
	<path fill="#388E8E" d="M496.1,239.2c-0.4,0.4-0.5,0.5-0.9,0.9c-1.4-0.5-3.1,1.6-4.5-0.2c-0.2-0.2-0.2-1.1,0-1.1
		C492.7,238.3,494.5,237.8,496.1,239.2z"/>
	<path fill="#388E8E" d="M483.1,250.1c-0.2-0.2-0.4-0.2-0.5-0.4c0.2-0.2,0.4-0.4,0.7-0.4c0.2,0,0.4,0.2,0.5,0.4
		C483.6,249.9,483.4,249.9,483.1,250.1z"/>
	<path fill="#388E8E" d="M741.8,280.1c-0.2,0.4-0.5,0.5-0.7,0.9c-2.4-3.6,2-2.9,2.5-4.7C744.3,278.5,742.1,278.8,741.8,280.1z"/>
	<path fill="#388E8E" d="M747,275.2c-0.7-0.2-2,0.4-2.4-0.9c0-0.2,0.2-0.5,0.4-0.5C746.5,273.4,746.7,274.3,747,275.2L747,275.2z"/>
	<path fill="#388E8E" d="M771.1,337.8c0.2,0.2,0.2,0.4,0.4,0.4C771.3,338.1,771.1,338.1,771.1,337.8
		C771.1,337.9,771.1,337.8,771.1,337.8z"/>
	<path fill="#388E8E" d="M134,194.2c0,0.2-0.2,0.2-0.2,0.4c0-0.2-0.2-0.2-0.2-0.4c0-0.2,0.2-0.2,0.2-0.4
		C134,193.9,134,194,134,194.2z"/>
	<path fill="#388E8E" d="M138.5,186.6c-0.2,0-0.2-0.2-0.4-0.2C138.1,186.4,138.3,186.6,138.5,186.6L138.5,186.6z"/>
	<path fill="#388E8E" d="M208.6,267.8c-0.4,0.2-0.7,0.4-0.9,0.5c0,0-0.2-0.2-0.2-0.4C207.9,267.8,208.1,267.8,208.6,267.8
		C208.5,267.6,208.6,267.8,208.6,267.8z"/>
	<path fill="#388E8E" d="M885.5,287.7c0.2,0.2,0.2,0.2,0.4,0.4C885.7,287.9,885.7,287.9,885.5,287.7L885.5,287.7z"/>
	<path fill="#388E8E" d="M774.5,260.9c0-0.2,0-0.5,0-0.7c0.2,0.2,0.2,0.4,0.4,0.5C774.7,260.7,774.5,260.9,774.5,260.9z"/>
	<path fill="#388E8E" d="M531,282.8c0.2-0.5,0-1.4,0.9-1.4c0.2,0,0.5,0.4,0.4,0.4C532.4,282.8,531.5,282.6,531,282.8L531,282.8z"/>
	<path fill="#388E8E" d="M142.6,272.7c-0.4,0.5-0.5,1.1-0.9,1.6c-0.7,0-1.6,0-2.4,0.2l0,0C139.9,272.9,141.2,272.5,142.6,272.7z"/>
	<path fill="#388E8E" d="M139.2,274.3c-0.4,0.2-0.5,0.4-0.9,0.5c0,0-0.2-0.2-0.2-0.4C138.5,274.5,138.8,274.5,139.2,274.3
		L139.2,274.3z"/>
	<path fill="#388E8E" d="M309.9,279.4c0.2,0.2,0.2,0.2,0.4,0.4C310.1,279.5,309.9,279.5,309.9,279.4L309.9,279.4z"/>
	<path fill="#388E8E" d="M281.5,349.7c0.4-0.4,0.7-0.7,0.9-0.7c0.4,0,0.9,0.2,1.1,0.4c0.2,0.7-0.2,1.1-0.9,1.1
		C282.2,350.2,281.9,349.9,281.5,349.7z"/>
	<path fill="#388E8E" d="M288.9,343.7c0.2-0.5,0.2-1.3,1.1-1.3c0.2,0,0.2,0.2,0.2,0.2C290.2,343.5,289.4,343.5,288.9,343.7
		L288.9,343.7z"/>
	<path fill="#388E8E" d="M322,239.8c-0.2,0.2-0.2,0.5-0.4,0.7c-0.2,0-0.4-0.2-0.7-0.2c0.2-0.2,0.2-0.5,0.4-0.7
		C321.4,239.6,321.8,239.8,322,239.8z"/>
	<path fill="#388E8E" d="M148.4,266.9c0.7,0,1.3,0.2,1.6,0.9C149.5,267.6,148.8,267.4,148.4,266.9z"/>
	<path fill="#388E8E" d="M735.1,343.7h-0.4h-0.4C734.6,343,734.9,343,735.1,343.7z"/>
	<path fill="#388E8E" d="M758.1,322.8c-1.3,0.2-2.5,0.4-4.2,0.7C755.9,320.8,755.9,320.8,758.1,322.8L758.1,322.8z"/>
	<path fill="#388E8E" d="M887.5,242.1c-1.6,0.7-2.5-0.2-3.6-1.3C885.3,240.5,887,240.1,887.5,242.1z"/>
	<path fill="#388E8E" d="M774.3,276.8c-0.4,0.2-0.5,0.4-0.9,0.7C773.2,276.5,774.1,277,774.3,276.8L774.3,276.8z"/>
</g>
</svg>
